<mxfile host="app.diagrams.net" agent="Mozilla/5.0 (Windows NT 10.0; Win64; x64) AppleWebKit/537.36 (KHTML, like Gecko) Chrome/131.0.0.0 Safari/537.36" version="25.0.3">
  <diagram name="Page-1" id="f7sOyJsTwlWZposddC-1">
    <mxGraphModel dx="1900" dy="1622" grid="1" gridSize="10" guides="1" tooltips="1" connect="1" arrows="1" fold="1" page="1" pageScale="1" pageWidth="850" pageHeight="1100" math="0" shadow="0">
      <root>
        <mxCell id="0" />
        <mxCell id="1" parent="0" />
        <mxCell id="r4KPTH7j58p8plraHldK-1" value="" style="shape=image;verticalLabelPosition=bottom;labelBackgroundColor=default;verticalAlign=top;aspect=fixed;imageAspect=0;image=data:image/png,iVBORw0KGgoAAAANSUhEUgAAAl4AAASJCAYAAAAJyhIrAAAKsGlDQ1BJQ0MgUHJvZmlsZQAASImVlwdUk9kSgOf/00NCgIQISAm9CdIJICX0AEqvohKSAKGEGIqKXVlcwbUgIoJlQVdFFFwLIGvFghXFhn1BFgV1XSzYsLwfOAR333nvnTc598yXydyZuffcOWcCQGcJZLJMVAUgS5orjwjw5sTFJ3BIfUAEJrYmgZNAmCPjhYWFACZj+u/y7jYgw/qG1XCsf//9v4qqSJwjBEDCME4W5QizMD6ErZdCmTwXALcDsxvOyZUN83mMWXKsQIwfDHPqKA8Mc/II4/EjPlERPhhrAJBpAoE8FYBmhNk5+cJULA7NF2MbqUgixRj7Dh5ZWdkijLG8YIb5yDAejs9N/i5O6t9iJitiCgSpCh49y4iQfSU5skzBvP/zOv63ZGXmjeUwwRYtTR4YgWk2dmd3MrKDFSxNnhY6xhLRiP8Ip+UFRo+xMMcnYYxFAt9gxd7MaSFjnCLx5yvi5PKjxlic4xc5xvLsCEWuFLkPb4wF8vG8eRnRCnuamK+IX5AWFTvG+ZKYaWOckxEZPO7jo7DL8yIU9YulAd7jef0VZ8/K+e68Er5ib25aVKDi7ILx+sVS3njMnDhFbSKxr9+4T7TCX5brrcglywxT+IszAxT2nPxIxd5c7EGO7w1T3GG6IChsjMEX/CAE+3AgGuzBDmzBBcIBcsVzh98o+GTL5sklqWm5HB7WZWIOXyq0nsSxs7FzABju2dEn8SZipBcR9vFxWzbWQ9x3WJ+sG7cllwE0FQFo3Bu3GW0FYBQCNLYK8+T5o7bhdgICUIEBLNAEXTAEM7DCqnMCN/DCKg6CUIiCeJgJQkiDLJDDHFgAS6EISmAtbIBK2AbbYTfsgwPQBEfhFJyDS3ANbsF96IJeeA4D8A6GEAQhIXSEiWgieogxYonYIVzEA/FDQpAIJB5JQlIRKZKHLECWIyVIKVKJVCO1yK/IEeQUcgHpQO4i3Ug/8hr5hOJQGspCdVATdDLKRXloMBqFzkBT0dloAVqIrkYr0Bp0L9qInkIvobfQLvQ5OogDnBKOjdPHWeG4OB9cKC4Bl4KT4xbhinHluBpcPa4F14a7gevCvcB9xBPxTDwHb4V3wwfio/FC/Gz8IvwqfCV+N74RfwZ/A9+NH8B/JdAJ2gRLgiuBT4gjpBLmEIoI5YSdhMOEs4RbhF7COyKRyCaaEp2JgcR4YjpxPnEVcQuxgXiS2EHsIQ6SSCRNkiXJnRRKEpBySUWkTaS9pBOk66Re0geyElmPbEf2JyeQpeRl5HLyHvJx8nXyU/IQRYViTHGlhFJElHmUNZQdlBbKVUovZYiqSjWlulOjqOnUpdQKaj31LPUB9Y2SkpKBkotSuJJEaYlShdJ+pfNK3UofaWo0C5oPLZGWR1tN20U7SbtLe0On003oXvQEei59Nb2Wfpr+iP5BmalsrcxXFikvVq5SblS+rvySQWEYM3iMmYwCRjnjIOMq44UKRcVExUdFoLJIpUrliEqnyqAqU9VWNVQ1S3WV6h7VC6p9aiQ1EzU/NZFaodp2tdNqPUwc05DpwxQylzN3MM8ye1lElimLz0pnlbD2sdpZA+pq6g7qMepz1avUj6l3sXFsEzafnclewz7Avs3+NEFnAm+CeMLKCfUTrk94rzFRw0tDrFGs0aBxS+OTJkfTTzNDc51mk+ZDLbyWhVa41hytrVpntV5MZE10myicWDzxwMR72qi2hXaE9nzt7dqXtQd1dHUCdGQ6m3RO67zQZet66abrluke1+3XY+p56En0yvRO6D3jqHN4nExOBecMZ0BfWz9QP0+/Wr9df8jA1CDaYJlBg8FDQ6oh1zDFsMyw1XDASM9oqtECozqje8YUY65xmvFG4zbj9yamJrEmK0yaTPpMNUz5pgWmdaYPzOhmnmazzWrMbpoTzbnmGeZbzK9ZoBaOFmkWVRZXLVFLJ0uJ5RbLjkmESS6TpJNqJnVa0ax4VvlWdVbd1mzrEOtl1k3WLycbTU6YvG5y2+SvNo42mTY7bO7bqtkG2S6zbbF9bWdhJ7SrsrtpT7f3t19s32z/ysHSQeyw1eGOI9NxquMKx1bHL07OTnKneqd+ZyPnJOfNzp1cFjeMu4p73oXg4u2y2OWoy0dXJ9dc1wOuf7lZuWW47XHrm2I6RTxlx5QedwN3gXu1e5cHxyPJ42ePLk99T4FnjedjL0MvkddOr6c8c146by/vpbeNt9z7sPd7H1efhT4nfXG+Ab7Fvu1+an7RfpV+j/wN/FP96/wHAhwD5gecDCQEBgeuC+zk6/CF/Fr+QJBz0MKgM8G04MjgyuDHIRYh8pCWqejUoKnrpz6YZjxNOq0pFEL5oetDH4aZhs0O+y2cGB4WXhX+JMI2YkFEWyQzclbknsh3Ud5Ra6LuR5tF50W3xjBiEmNqY97H+saWxnbFTY5bGHcpXiteEt+cQEqISdiZMDjdb/qG6b2JjolFibdnmM6YO+PCTK2ZmTOPzWLMEsw6mERIik3ak/RZECqoEQwm85M3Jw8IfYQbhc9FXqIyUb/YXVwqfprinlKa0pfqnro+tT/NM6087YXER1IpeZUemL4t/X1GaMaujG+ZsZkNWeSspKwjUjVphvRMtm723OwOmaWsSNY123X2htkD8mD5zhwkZ0ZOcy4LG44u55nl/ZDXne+RX5X/YU7MnINzVedK516eZzFv5bynBf4Fv8zHzxfOb12gv2Dpgu6FvIXVi5BFyYtaFxsuLlzcuyRgye6l1KUZS68ss1lWuuzt8tjlLYU6hUsKe34I+KGuSLlIXtS5wm3Fth/xP0p+bF9pv3LTyq/FouKLJTYl5SWfVwlXXfzJ9qeKn76tTlndvsZpzda1xLXStbfXea7bXapaWlDas37q+sYyTllx2dsNszZcKHco37aRujFvY1dFSEXzJqNNazd9rkyrvFXlXdWwWXvzys3vt4i2XN/qtbV+m862km2ffpb8fKc6oLqxxqSmfDtxe/72JztidrT9wv2ldqfWzpKdX3ZJd3Xtjth9pta5tnaP9p41dWhdXl3/3sS91/b57muut6qvbmA3lOyH/Xn7n/2a9OvtA8EHWg9yD9YfMj60+TDzcHEj0jivcaApramrOb6540jQkdYWt5bDv1n/tuuo/tGqY+rH1hynHi88/u1EwYnBk7KTL06lnuppndV6/3Tc6Ztnws+0nw0+e/6c/7nTbby2E+fdzx+94HrhyEXuxaZLTpcaLztePnzF8crhdqf2xqvOV5uvuVxr6ZjScfy65/VTN3xvnLvJv3np1rRbHbejb9/pTOzsuiO603c38+6re/n3hu4veUB4UPxQ5WH5I+1HNb+b/97Q5dR1rNu3+/LjyMf3e4Q9z//I+eNzb+ET+pPyp3pPa/vs+o72+/dfezb9We9z2fOhF0V/qv65+aXZy0N/ef11eSBuoPeV/NW316veaL7Z9dbhbetg2OCjd1nvht4Xf9D8sPsj92Pbp9hPT4fmfCZ9rvhi/qXla/DXB9+yvn2TCeSCkVEAhy00JQXg9S4AejwA8xoAdfroTD0iyOj/gBGC/8Sjc/eIOAFs7wSImg8QcgVgUyU20mLxGYkAYQzM7gaovb1ijc2/I7P6sKjsBag2trVPCHl4hw//lNE5/ru6/6lhOKoD/FP/C9TLCE5zPFQyAAAAOGVYSWZNTQAqAAAACAABh2kABAAAAAEAAAAaAAAAAAACoAIABAAAAAEAAAJeoAMABAAAAAEAAASJAAAAAEmsol4AAEAASURBVHgB7N0JnCRlfTfwf+/M3jvsMbssLLArYkRAxBMERfGIxuMNMRKVhHi/4qsmMSZq0OAR4xGNt8H7CGrwwIMkEvHEICigKLegCMux7LI7e83e17z11NK9M8NO90xTM9Nd/X38yFR3PfVU1fep/dTvU1X9VGUgK6EQIECAAAECBAiMu8CUcV+DFRAgQIAAAQIECOQCgpcDgQABAgQIECAwQQKC1wRBWw0BAgQIECBAQPByDBAgQIAAAQIEJkhA8JogaKshQIAAAQIECAhejgECBAgQIECAwAQJCF4TBG01BAgQIECAAAHByzFAgAABAgQIEJggAcFrgqCthgABAgQIECDQ3Yhg+fLljaqYT4AAAQIECBAgkAksW7asroMrXnV5zCRAgAABAgQIFCcgeBVnqSUCBAgQIECAQF0Bwasuj5kECBAgQIAAgeIEBK/iLLVEgAABAgQIEKgrIHjV5TGTAAECBAgQIFCcgOBVnKWWCBAgQIAAAQJ1BQSvujxmEiBAgAABAgSKExC8irPUEgECBAgQIECgroDgVZfHTAIECBAgQIBAcQKCV3GWWiJAgAABAgQI1BUQvOrymEmAAAECBAgQKE5A8CrOUksECBAgQIAAgboCglddHjMJECBAgAABAsUJCF7FWWqJAAECBAgQIFBXQPCqy2MmAQIECBAgQKA4AcGrOEstESBAgAABAgTqCghedXnMJECAAAECBAgUJyB4FWepJQIECBAgQIBAXQHBqy6PmQQIECBAgACB4gQEr+IstUSAAAECBAgQqCsgeNXlMZMAAQIECBAgUJyA4FWcpZYIECBAgAABAnUFBK+6PGYSIECAAAECBIoTELyKs9QSAQIECBAgQKCugOBVl8dMAgQIECBAgEBxAoJXcZZaIkCAAAECBAjUFRC86vKYSYAAAQIECBAoTkDwKs5SSwQIECBAgACBugKCV10eMwkQIECAAAECxQkIXsVZaokAAQIECBAgUFdA8KrLYyYBAgQIECBAoDgBwas4Sy0RIECAAAECBOoKCF51ecwkQIAAAQIECBQnIHgVZ6klAgQIECBAgEBdAcGrLo+ZBAgQIECAAIHiBASv4iy1RIAAAQIECBCoK9Bdd24bzPxZ3+VxzYZrYvmWO6J/Z38MZP9T2lOgEpXomdoTy2YdFg+b+7A4sfeE9twRW02AAAECBEYQqAxkZYR5+dfLly+vN3vS5l234fr41ooLYtW2eyZtG6x4fAUWzzgwnrPk1Hjo3GPGd0VaJ0CAAAECBQksW7asbktteavxkjWXxid+/2mhq27Xtv/MFKpTP6f+VggQIECAQBkE2i54pStdX73j62Wwtw+jFEj9nfpdIUCAAAEC7S7QdsEr3V5UOk9Av3den9tjAgQIlFGgrYJXepDeM11lPAwb71Pq99T/CgECBAgQaGeBtgpe6deLSucK6P/O7Xt7ToAAgbIItFXwSkNGKJ0roP87t+/tOQECBMoi0FbBK43TpXSugP7v3L635wQIECiLQFsFL4OjluWwa24/9H9zbpYiQIAAgdYRaKvg1TpstoQAAQIECBAgMHYBwWvsZpYgQIAAAQIECDQlIHg1xWYhAgQIECBAgMDYBQSvsZtZggABAgQIECDQlIDg1RSbhQgQIECAAAECYxcQvMZuZgkCBAgQIECAQFMCgldTbBYiQIAAAQIECIxdQPAau5klCBAgQIAAAQJNCQheTbFZiAABAgQIECAwdgHBa+xmliBAgAABAgQINCUgeDXFZiECBAgQIECAwNgFBK+xm1mCAAECBAgQINCUgODVFJuFCBAgQIAAAQJjFxC8xm5mCQIECBAgQIBAUwKCV1NsFiJAgAABAgQIjF1A8Bq7mSUIECBAgAABAk0JCF5NsVmIAAECBAgQIDB2AcFr7GaWIECAAAECBAg0JSB4NcVmIQIECBAgQIDA2AUEr7GbWYIAAQIECBAg0JSA4NUUm4UIECBAgAABAmMXELzGbmYJAgQIECBAgEBTAoJXU2wWIkCAAAECBAiMXUDwGruZJQgQIECAAAECTQkIXk2xWYgAAQIECBAgMHYBwWvsZpYgQIAAAQIECDQlIHg1xWYhAgQIECBAgMDYBQSvsZtZggABAgQIECDQlIDg1RSbhQgQIECAAAECYxcQvMZuZgkCBAgQIECAQFMCgldTbBYiQIAAAQIECIxdoHvsi1giCfz7H30ueqbNGRHjazefH1/5zddGnG8GAQIECBAg0HkCgleTff5XP3ptPO6QE+MVx748uqfsY7xi5ZXxxRv+I27vv73Jli1GgAABAgQIlFXArcYme3bjjo3xP7deFL+659e1FnYP7I53/PxdcdvG22LPwJ7a9yYIECBAgAABAklA8Lqfx0Hftr5aCzt376xNmyBAgAABAgQIDBcQvIaLjPHz4CtbAzEwxqVVJ0CAAAECBDpJQPBqwd4+rOewWDizd0xbNnvqrHjMQY+KQ3sOGdNyqXIz6xvzSixAgAABAgQIxL6nwmFMqsAjD3xE/M0j/yrmT58XlUol35b0zNg9W+6J91zxvvj9hlv3u30PW3RsvOn4N8bsqbNr83ft2RXpFugt638fv133u4isuUvv+lncvfnuWp1m11drwAQBAgQIECAwZgHBa8xkxS/w6of/v/ijBzwtBgYG4id3XhIX3vY/8agDHxnP/YPnxMGzD44PPen98fWbvhFfvPHLQ1Z+/EGPibMf+6b8uw9d9ZH42YrL45XHvSKedNgTY/Gsxfn/T1pyYj5/SmVKfO2m8/PpZtc3ZOU+ECBAgAABAmMWELzGTFbsAo8/5KQ8dKVWv/yb8+KrN309X8GNfb/JfzH57pP/ObtgVYnnHXlaXLnqF/GbtTfVNuD1j35dPp2uhv3w9h/n0x/45Yfi2IXHZLcqF+afv3LT1/JAdtemu/LP92d9eQP+Q4AAAQIECDQt4Bmvpunu/4LplmK6vZjKtl3baqGr2vL1fTfktwirn990/D9UJ2PZAUtjRveM/POKTStq36eJX6z6Ze3zwbMPym5T/j62796e38Jsdn21Bk0QIECAAAECTQsIXk3T3f8FHzzvD2JG197wtHrrmv02+B+/+Urt+/kz5sW0rqn55wfOPbz2/ZxhI+inW47V0jtj30P692d91fb8JUCAAAECBJoXELyat7vfSx676KG1Nu7Zsro2PXjijv47YuuurbWvjuk9Jp++/O4ra9/9wbwH1abTxE3r9t2OHPxQ/v1Z35AV+ECAAAECBAg0JSB4NcVWzELpNmC1TB302qHqd9W/G3f0VyfjAQc8IJ/esmtL/svF9CH9ovFZD3xG/n36z/EHHZ9Pp19Ffvt3/1n7/v6sr9aICQIECBAgQKBpAQ/XN03X/IKzumfFsrlLs+EdVtYa6a0zbtfmnZtr9W7vX16bfvNP3xLvfcK744BpB8SZD/u/ka587cyGknjK0iflv5D86K/OidVb911Ju7/rq63YBAECBAgQINCUgCteTbHdv4XSEBD/dOJb47o119caWjzrwNr4XbUv752YM3VO7avr1txQm74re6g+hatUduzeEY89+IR4xIEPj1/fc3W87HtnZr90/FGtbpq4v+sb0pgPBAgQIECAwJgFXPEaM9nwBfYOdjr825E+p4FLH5oN93DNmmvj5nW/jTTYaXd2mzH9P43llV68PbwsmDE//2rttnX5rxOr8084+Ph40wlvjJ/ffXm88/L3VL8e8e/9Xd+IDZtBgAABAgQIjErAFa9RMY1cad70ubWZXZWu2vT+Jk4+5PHxthPPzmddfMf/RnrP46eu/Uyt6l8edUbtV4vVL5946BPyUJY+v+8X769+nf99w6P/Lh/ja9229fnrgtLzX2ng1LnTDxhSr/rh/q6v2o6/BAgQIECAQHMCrng155YvlYLOIxc/otbCtK5p8YEnvi/u3HRn/l16lmvm1JnZM1g9sWT2kixUTcu/Ty/T/smdP8mn0xWuxx/yuHjYwmOjJxsW4v3Z8mdd8o+xaeemOGTOkmycr9fk9dIAqYNvFS6auajW3jMOf3qk/w8vaeyu7y//YXzymk/XZjW7vloDJggQIECAAIGmBSrZa2oG6i29fPm+h7nr1ZuIea/51WsnYjWjWsd/PPPcLCj1jKru8ErpgfeXXvSKIV8/78GnxRlH/XntOa80oGoaIDV1z8ev+eR+b0G+Nht89SlLnzyknf19uKHvxnjjJXtfLVSd38z6qstO5t+PPeJDk7l66yZAgAABAnUFli1bVne+K151eUae+ecXvnDkmU3M+drN58f5v/1m/vzXcQsfll0TG4ir7vlV3Lj2N3n4Gt5kGvV+2QHLsl8x7ox//cUHYsGMBZF+GTmre2ZM75oeM7O/6arYg+YfEUcuePDwxWOs67tPA74gQIAAAQIExiwgeI2ZbPwWSM9gXbP62vz/jdbywSf+axwx74Fx3m++Gpet+PmI1dMzYn//6L/Nw1i69Ti4jGV9g5czTYAAAQIECDQn4OH65twmdan0PFcKXalcdNv3627LSUseG+u3rx/ya8i6C5hJgAABAgQIjJuA4DVutOPX8OD3L/7LE94VaYiK6guzq2t9zEGPig8/6QNxYha8PnfdF6pf+0uAAAECBAhMooBbjZOI3+yq02uAnv3AZ+avCkoDr779pLfkTaUxwdLtw6nZi7Qr2f/SoKrpF5LX9+0bdLXZdVqOAAECBAgQuP8Crnjdf8MJbyENNfHy770yLl1xWf5wfXUD0iCsUypTYmX2KqJPXPOpOO2/XyB0VXH8JUCAAAECLSDgilcLdEIzm5DC13uueF++aPeUruwXjAfGmq1rhgSxZtq1DAECBAgQIDB+AoLX+NlOWMu79uzOXrh994Stz4oIECBAgACB5gTcamzOzVIECBAgQIAAgTELCF5jJrMAAQIECBAgQKA5AcGrOTdLESBAgAABAgTGLCB4jZnMAgQIECBAgACB5gQEr+bcLEWAAAECBAgQGLOA4DVmMgsQIECAAAECBJoTELyac7MUAQIECBAgQGDMAoLXmMksQIAAAQIECBBoTkDwas7NUgQIECBAgACBMQsIXmMmswABAgQIECBAoDkBwas5N0sRIECAAAECBMYsIHiNmcwCBAgQIECAAIHmBASv5twsRYAAAQIECBAYs4DgNWYyCxAgQIAAAQIEmhMQvJpzsxQBAgQIECBAYMwCgteYySxAgAABAgQIEGhOQPBqzs1SBAgQIECAAIExCwheYyazAAECBAgQIECgOQHBqzk3SxEgQIAAAQIExiwgeI2ZzAIECBAgQIAAgeYEBK/m3CxFgAABAgQIEBizgOA1ZjILECBAgAABAgSaExC8mnOzFAECBAgQIEBgzAKC15jJLECAAAECBAgQaE5A8GrOzVIECBAgQIAAgTELtFXwqkRlzDtogfII6P/y9KU9IUCAQKcKtFXw6pna06n9ZL8zAf3vMCBAgACBdhdoq+C1bNZh7e5t+++HgP6/H3gWJUCAAIGWEGir4PWwuQ9rCTQbMTkC+n9y3K2VAAECBIoTaKvgdWLvCbF4xoHF7b2W2kYg9Xvqf4UAAQIECLSzQFsFrwT9nCWntrO3bW9SQL83CWcxAgQIEGgpgbYLXg+de0w8/7A/aylEGzO+Aqm/U78rBAgQIECg3QW623EHTl74uJg/dV58a8UFsWrbPe24C7Z5FALp9mK60iV0jQJLFQIECBBoC4HKQFbqbeny5cvrzZ70eT/ruzyu2XBNLN9yR/Tv7I+B7H9KewqkcbrSkBHp14vpQXrPdLVnP9pqAgQIdLLAsmXL6u5+2wevuntnJgECBAgQIEBgAgUaBa+2e8ZrAu2sigABAgQIECBQqIDgVSinxggQIECAAAECIwsIXiPbmEOAAAECBAgQKFRA8CqUU2MECBAgQIAAgZEFBK+RbcwhQIAAAQIECBQqIHgVyqkxAgQIECBAgMDIAoLXyDbmECBAgAABAgQKFRC8CuXUGAECBAgQIEBgZAHBa2QbcwgQIECAAAEChQoIXoVyaowAAQIECBAgMLKA4DWyjTkECBAgQIAAgUIFBK9COTVGgAABAgQIEBhZQPAa2cYcAgQIECBAgEChAoJXoZwaI0CAAAECBAiMLCB4jWxjDgECBAgQIECgUAHBq1BOjREgQIAAAQIERhYQvEa2MYcAAQIECBAgUKiA4FUop8YIECBAgAABAiMLCF4j25hDgAABAgQIEChUQPAqlFNjBAgQIECAAIGRBQSvkW3MIUCAAAECBAgUKiB4FcqpMQIECBAgQIDAyAKC18g25hAgQIAAAQIEChUQvArl1BgBAgQIECBAYGQBwWtkG3MIECBAgAABAoUKCF6FcmqMAAECBAgQIDCygOA1so05BAgQIECAAIFCBQSvQjk1RoAAAQIECBAYWUDwGtnGHAIECBAgQIBAoQKCV6GcGiNAgAABAgQIjCwgeI1sYw4BAgQIECBAoFABwatQTo0RIECAAAECBEYWELxGtjGHAAECBAgQIFCogOBVKKfGCBAgQIAAAQIjCwheI9uYQ4AAAQIECBAoVKC7UWsLFixoVMV8AgQIECBAgACBUQi44jUKJFUIECBAgAABAkUICF5FKGqDAAECBAgQIDAKAcFrFEiqECBAgAABAgSKEBC8ilDUBgECBAgQIEBgFAKC1yiQVCFAgAABAgQIFCEgeBWhqA0CBAgQIECAwCgEBK9RIKlCgAABAgQIEChCQPAqQlEbBAgQIECAAIFRCAheo0BShQABAgQIECBQhIDgVYSiNggQIECAAAECoxAQvEaBpAoBAgQIECBAoAgBwasIRW0QIECAAAECBEYhIHiNAkkVAgQIECBAgEARAoJXEYraIECAAAECBAiMQkDwGgWSKgQIECBAgACBIgQEryIUtUGAAAECBAgQGIWA4DUKJFUIECBAgAABAkUICF5FKGqDAAECBAgQIDAKAcFrFEiqECBAgAABAgSKEBC8ilDUBgECBAgQIEBgFAKC1yiQVCFAgAABAgQIFCEgeBWhqA0CBAgQIECAwCgEBK9RIKlCgAABAgQIEChCQPAqQlEbBAgQIECAAIFRCAheo0BShQABAgQIECBQhIDgVYSiNggQIECAAAECoxAQvEaBpAoBAgQIECBAoAgBwasIRW0QIECAAAECBEYhIHiNAkkVAgQIECBAgEARAoJXEYraIECAAAECBAiMQkDwGgWSKgQIECBAgACBIgQEryIUtUGAAAECBAgQGIWA4DUKJFUIECBAgAABAkUICF5FKGqDAAECBAgQIDAKAcFrFEiqECBAgAABAgSKEBC8ilDUBgECBAgQIEBgFAKC1yiQVCFAgAABAgQIFCEgeBWhqA0CBAgQIECAwCgEBK9RIKlCgAABAgQIEChCQPAqQlEbBAgQIECAAIFRCAheo0BShQABAgQIECBQhIDgVYSiNggQIECAAAECoxAQvEaBpAoBAgQIECBAoAgBwasIRW0QIECAAAECBEYhIHiNAkkVAgQIECBAgEARAt1FNFKGNi5bEXHFqogb+ipxe39E37aIHbvLsGf2gQABAgQITLzAtK6I3hkRS3siju4diOMXR5y0ZOK3o9XWWBnISr2N6u/PUkhJy6otEefdFHHBLZVYmwUthQABAgQIEBg/gQVZEDv1iIE4/ciIxbPGbz2T2XJPT5Y065SODV7nXF2JT15bR8YsAgQIECBAYNwEzjw24lXH1b32M27rHs+GBa9hujeujXjH5ZW4vm/YDB8JECBAgACBCRU4pjfi7BMG4qgFE7racV1Zo+DVUQ/XX3xnxAsvErrG9YjTOAECBAgQGKVAugiSzsvp/NwppWOCV+rUv7m44oH5Tjmy7ScBAgQItIVA+iFbOj93SvjqiOCVbi++/pJKWxyANpIAAQIECHSiQDpPp/N12UtHBK/0TJehIcp+KNs/AgQIEGhngXSeTufrspfSB6/060UP0pf9MLZ/BAgQIFAGgXS+TuftMpdSB680TpchI8p8+No3AgQIECibQDpvp/N3WUupg1caHFUhQIAAAQIE2kugzOfvUgevNCK9QoAAAQIECLSXQJnP36UNXundi14D1F7/0GwtAQIECBBIAun8nc7jZSylDV7phdcKAQIECBAg0J4CZT2PlzZ43dDnNmN7/lOz1QQIECBAIKKs5/HSBq/b+x22BAgQIECAQLsKlPU8Xtrg1ZfdH1YIECBAgACB9hQo63m8tMHLSPXt+Q/NVhMgQIAAgSRQ1vN4aYOXw5YAAQIECBAg0GoCgler9YjtIUCAAAECBEorIHiVtmvtGAECBAgQINBqAoJXq/WI7SFAgAABAgRKKyB4lbZr7RgBAgQIECDQagKCV6v1iO0hQIAAAQIESisgeJW2a+0YAQIECBAg0GoCgler9YjtIUCAAAECBEorIHiVtmvtGAECBAgQINBqAoJXq/WI7SFAgAABAgRKKyB4lbZr7RgBAgQIECDQagKCV6v1iO0hQIAAAQIESisgeJW2a+0YAQIECBAg0GoCgler9YjtIUCAAAECBEorIHiVtmvtGAECBAgQINBqAoJXq/WI7SFAgAABAgRKKyB4lbZr7RgBAgQIECDQagKCV6v1iO0hQIAAAQIESisgeJW2a+0YAQIECBAg0GoCgler9YjtIUCAAAECBEorIHiVtmvtGAECBAgQINBqAoJXq/WI7SFAgAABAgRKKyB4TWDX7tm6IbZc850JXGMxqxrYtSO23vjD2L3h7mIa1AoBAgQIEOhQge4O3e8J2+3d/atj8y+/GVuuvTALLz/K13v4Of0Ttv5mV5SHxKv/O9/mtO17tm2Kg//+B9E19+Bmm7QcAQIECBDoeAFXvMb5ENi9cVVsv/1XtdA1zqsrrPk9W9bHzlU3x7bfXpqHrtRwZYqcXhiwhggQIECgIwUEr3Hu9mmHPDQWvfATMftRfzrOayq2+e7eZTH/1LfH3D/861rDla6u2rQJAgQIECBAYOwCgtfYzZpaortNb9FNmb1g3/664rXPwhQBAgQIEGhCQPBqAq1jF6lUOnbX7TgBAgQIEChCQPAqQrHZNvbsjl19y2P3pjWjbiE9e5UefB9N2bN5bey44+rYfuuV2TIbR7NIRLZNO1f/PnatvWM/9esEr4GBSM+zDezctp/lhn6Vtj/tR7XsXH1rDOzZVf3oLwECBAgQKK2Ap6UnoWtTyNjw/Y/EhoveV3twferBD4kDX/K5mHbosffZohRU1n77rbH12u/GrvV35fO75x0S8579pug58Yz01PuQZXauvCn6vvGm2Hr992LqgQ+KgR1b8+WmL3tULH7lV7JfJh40pH76sGfzuljz1dfF1uu+W9umtI79bc/ghXfe/ZtY+59vi203/aS2XFrPgtPeHTOOOHFf1YE9se33l8emK74a/Zd8Ng586eeja/4h0fe1N2Th8NfR1bMoDn37NTFlxpx9y5giQIAAAQIlExC8JqFDV3/+ZfkQE90LD4+pBx+VX5FKAWblR0+NQ9/2q5gyc25tq3auvDlWnnNaVKZOjwXPfWcWTHqi/+dfzpdf86VXx/bf/zwWnnFOrf6utbfHiveekoeg9FD/nMf+RT6v7+tviI0//niseP/T4tC3/CIq3dNqy+xc9dtY+W/PjV1rbo1FL/50zH7EqdnVq3ti48WfjA0//GitXgy71bjlmgtj1SeeH7Me/n9i0Us+H7F7Z6z7zrti+/Jfxt3Zeha96FMx54TTsytot8bd//qUSENrVMv25VfFhs+9pPoxn5eWm3nkE2vfmSBAgAABAmUTGHqppGx716L7k8JUGhPrsLdfHUte/6M44JQz8y1NwWT77b+ubXW6MnbPZ18UA9uzMbRee2H2y8jnxsxjskDzks9GuqqUSv9lX8zGCPtubZn+y86tXXma8ZBTat/33BvAUrjanl15qpa0jlWf+vM8dC08/cMx5/gXZCFvZqRfNS547rvy9VXrDv67a92deeiaefRT48CXnxuzjv2jPIAd9Df/Vau2+t9fEbvXr4ipCx8Qh5x9ZR7CqjNToEtXxdJ+pTbS/2cc/pjqbH8JECBAgEApBQSvSejWg179jZjxwBOyW4R7n5ma9dCn17Yi3Sasls3Zbbkdd12XB5Z0K65a0nhas457dvVjbP71BbXprjkLa9OVrn1XtabMmlf7fte6fc9vpXWkq23pFt+cx55eq1OdmHnkE6qTUcn+Vy3r/uuf88kDnviKIeN7pfUPvmq19aaL8/3smtObX0mrLp/qzH3ya2LGg0+Og17zrfz/lWmzqrP9JUCAAAECpRRwq3ESurWS3S4cXNJYX9Uy+KH2dPUqlQ0/+Ehsuvy8apX87+DbdjvuvK4274An/N+YetCR0ZUNA1ENa3u29cfmX327VieNQl8t67//oXxy1rHPzK90Vb+v/u06YHF1shYUB3ZujU3Z7c5UVn/+pfdZbsi2ZaGuWgaPej/70adVv/aXAAECBAh0jIDg1QJdnW7t1Ur2EHq17Ljzmnxy3jPekF8Zqn4//O+U6YOC3JSumPmQJ+VV0tWy9CD7xv/9TEw77OHDF4uB7JmsdLUrle4Fh95n/khfpGe2qmXRiz8Tlemzqx/v87d7wdLad5Vs26ql0jW1OukvAQIECBDoGAHBq0W7Og0FUb0yla46zTzylFFvabpqtvabb47NV30r0pWlQ996Vf5w/h3/eMyQNnatua32eSAbDqJx2XurcfByKVg1+uVj43bVIECAAAECnSEgeLVoPw9+3mnHihtGvZXpwf27P/hH+a8E5z3rrJj/zLPyW4Tp147Dy8Cu7bWvBoep2pfDJ+59Ji39srJa0jNpgldVw18CBAgQIFBfwMP19X0mbW5l6oxI42ilkm4XpsFJ91uyK1V9X3t9bL3h+/nsNV95bR660rLV0LXf5bIvpy56YG1WWn5gx5ba53oT3dmvFKtlww8/FjHC1bL0bFkapmL3hpXV6v4SIECAAIGOFhC8Wrj7Zx79lNrWpQFU06jyw8v6730wG2/rEzH9AY/Jb01uu/mSvEp+FWrQuFsD2weFqnuDUrqqlgZuTSXd1tx05dfz6cH/GTwS/cDuHfms7mzg02ooTGNv9f/si4MXyafTMBWrP/fSfCiM/Q3Yep8FfEGAAAECBDpAQPCaoE5OV3+qZWD75upk/nfPjn2f9wyaN/cPX1url35FmAZS3X7bL/NXBm298Yex5rzXxroL3hq9z3tf7B0uYt9zWluyEejTIKWppLG00sCm1ZLG4EohLg2SuuDUt1e/jjVffk1szUagr5Z0BWzD9z9c/ZhdVfthDOzKwlc2Uv78Pz679n0ayDU9U5ZuO6bXH236xddj1Tl/FmkbFvzpvvXuycYjq5bBv96sfucvAQIECBAou0Ale6h639l6P3vb378vMOxndst+ddyX9j4I3gobmN5LuOK9T4qd9/wu35w04OjsRz6ntmmbf3F+3HPvKO7pCtSSbHDV6uj16y98T6z773fW6g6f6Hn8S2Lhn3+k9vVd7zwxH/ur+kUanytdzZr9qD/NR7uvfp9Gze953Itj3tNflw0J8bLsatfXqrOyV/08NqZk425tufo7te+qE6m9Q992dUyZPT8LV6fF1ht/VJ11n79pFPw0IGu1pHCWhsZIJb3KaMkbL67tZ7WOvwQIECBAoCpw9Rl1I0q1Wkv97enZ9xz0/jZM8NqfSoHfpfclpuechpc0UnsaOHTlh5895CpTtd4hZ/00GwLiuPxj/6VfiLXfOKv2K8f0ZQpAvc//wN5gM+iWYnq4Pr3Gpxry0kClcx73opjz6D+LDdltybXffkveZs/JL4ve096T/dpxRvaM1p5Ityw3XPSvtXXkA6pmoSmNMZaurKXXCKXX/8w86sm1cbvScBRr06uIsuEqBpcUHhdlrzGafu9I9OlF3Ss/9pwhrwyq1k+j9vc+71+rH/0lQIAAAQI1AcGrRtH6E610xasQrSwcpfGzdvXdFvk7HrNX+sSgcbGGrCOru6vv9vxqUroyNbikq2/pPY2DfzVZm59d/NyZvVIoPdc1LT37ld1STLcOUxk8In6t/r0T6fbjzrtviN1bNsS0gx6cvYT74OFVfCZAgAABAmMWELzGTDZ5C5QueE0epTUTIECAAIFJEShj8PJw/aQcSlZKgAABAgQIdKKA4NWJvW6fCRAgQIAAgUkRELwmhd1KCRAgQIAAgU4UELw6sdftMwECBAgQIDApAoLXpLBbKQECBAgQINCJAoJXJ/a6fSZAgAABAgQmRUDwmhR2KyVAgAABAgQ6UUDw6sRet88ECBAgQIDApAgIXpPCbqUECBAgQIBAJwoIXp3Y6/aZAAECBAgQmBQBwWtS2K2UAAECBAgQ6EQBwasTe90+EyBAgAABApMiIHhNCruVEiBAgAABAp0oIHh1Yq/bZwIECBAgQGBSBASvSWG3UgIECBAgQKATBQSvTux1+0yAAAECBAhMioDgNSnsVkqAAAECBAh0ooDg1Ym9bp8JECBAgACBSREQvCaF3UoJECBAgACBThQQvDqx1+0zAQIECBAgMCkCgteksFspAQIECBAg0IkCglcn9rp9JkCAAAECBCZFQPCaFHYrJUCAAAECBDpRoLTBa1pXJ3anfSZAgAABAuUQKOt5vLTBq3dGOQ48e0GAAAECBDpRoKzn8dIGr6U9nXiY2mcCBAgQIFAOgbKex0sbvI7uHSjHkWcvCBAgQIBABwqU9Txe2uB1/OIOPErtMgECBAgQKIlAWc/jpQ1eJy2JWOA5r5L887MbBAgQINBJAun8nc7jZSylDV6ps049wu3GMh609okAAQIEyi1Q5vN3qYPX6UeW+8C0dwQIECBAoIwCZT5/lzp4LZ4VceaxZTwk7RMBAgQIECinQDpvp/N3WUupg1fqtFcdNxDH9Ja1++wXAQIECBAoj0A6X6fzdplL6YNX6ryzTxiIso6AW+aD074RIECAQOcIpPN0Ol+XvXRE8DpqQcT7Ti5/Z5b9YLV/BAgQIFBegXSeTufrspeOCF6pE085NOLDp7jyVfYD2v4RIECAQHsJpCtd6fycztOdUDomeKXOTJ167tM989UJB7Z9JECAAIHWF0jPdKXzcqeErtQjlYGs1Oua/v7+erPbdt45V1fik9e27ebbcAIECBAg0NYC6deLZXyQvqen/suiOzZ4paN11ZaI826KuOCWSqzd1tbHr40nQIAAAQItL5BGpE+Do6Zxuso6ZITgNcrD8LIVEVesirihrxK3Zxf5+rIgtmP3KBdWjQABAgQIEBgikJ7d6s2C1tLsAlB64XV692JZXwM0eMcFr8EapgkQIECAAAEC4yjQKHh11MP14+isaQIECBAgQIBAQwHBqyGRCgQIECBAgACBYgQEr2IctUKAAAECBAgQaCggeDUkUoEAAQIECBAgUIyA4FWMo1YIECBAgAABAg0FBK+GRCoQIECAAAECBIoRELyKcdQKAQIECBAgQKChgODVkEgFAgQIECBAgEAxAoJXMY5aIUCAAAECBAg0FBC8GhKpQIAAAQIECBAoRkDwKsZRKwQIECBAgACBhgKCV0MiFQgQIECAAAECxQgIXsU4aoUAAQIECBAg0FBA8GpIpAIBAgQIECBAoBgBwasYR60QIECAAAECBBoKCF4NiVQgQIAAAQIECBQjIHgV46gVAgQIECBAgEBDAcGrIZEKBAgQIECAAIFiBASvYhy1QoAAAQIECBBoKCB4NSRSgQABAgQIECBQjIDgVYyjVggQIECAAAECDQUEr4ZEKhAgQIAAAQIEihEQvIpx1AoBAgQIECBAoKGA4NWQSAUCBAgQIECAQDECglcxjlohQIAAAQIECDQUELwaEqlAgAABAgQIEChGQPAqxlErBAgQIECAAIGGAt0Na3RIhctWRFyxKuKGvkrc3h/Rty1ix+4O2Xm7SYAAAQIEChaY1hXROyNiaU/E0b0DcfziiJOWFLySNmyuMpCVetvd35+lkJKWVVsizrsp4oJbKrE2C1oKAQIECBAgMH4CC7IgduoRA3H6kRGLZ43feiaz5Z6eLGnWKR0bvM65uhKfvLaOjFkECBAgQIDAuAmceWzEq46re+1n3NY9ng0LXsN0b1wb8Y7LK3F937AZPhIgQIAAAQITKnBMb8TZJwzEUQsmdLXjurJGwaujHq6/+M6IF14kdI3rEadxAgQIECAwSoF0ESSdl9P5uVNKxwSv1Kl/c3HFA/OdcmTbTwIECBBoC4H0Q7Z0fu6U8NURwSvdXnz9JZW2OABtJAECBAgQ6ESBdJ5O5+uyl44IXumZLkNDlP1Qtn8ECBAg0M4C6TydztdlL6UPXunXix6kL/thbP8IECBAoAwC6XydzttlLqUOXmmcLkNGlPnwtW8ECBAgUDaBdN5O5++yllIHrzQ4qkKAAAECBAi0l0CZz9+lDl5pRHqFAAECBAgQaC+BMp+/Sxu80rsXvQaovf6h2VoCBAgQIJAE0vk7ncfLWEobvNILrxUCBAgQIECgPQXKeh4vbfC6oc9txvb8p2arCRAgQIBARFnP46UNXrf3O2wJECBAgACBdhUo63m8tMGrL7s/rBAgQIAAAQLtKVDW83hpg5eR6tvzH5qtJkCAAAECSaCs5/HSBi+HLQECBAgQIECg1QQEr1brEdtDgAABAgQIlFZA8Cpt19oxAgQIECBAoNUEBK9W6xHbQ4AAAQIECJRWQPAqbdfaMQIECBAgQKDVBASvVusR20OAAAECBAiUVkDwKm3X2jECBAgQIECg1QQEr1brEdtDgAABAgQIlFZA8Cpt19oxAgQIECBAoNUEBK9W6xHbQ4AAAQIECJRWQPAqbdfaMQIECBAgQKDVBASvVusR20OAAAECBAiUVkDwKm3X2jECBAgQIECg1QQEr1brEdtDgAABAgQIlFZA8Cpt19oxAgQIECBAoNUEBK9W6xHbQ4AAAQIECJRWQPAqbdfaMQIECBAgQKDVBASvVusR20OAAAECBAiUVkDwKm3X2jECBAgQIECg1QQEr1brEdtDgAABAgQIlFZA8Cpt19oxAgQIECBAoNUEBK9W6xHbQ4AAAQIECJRWQPAqbdfaMQIECBAgQKDVBASvVusR20OAAAECBAiUVkDwKm3X2jECBAgQIECg1QQEr1brEdtDgAABAgQIlFZA8Cpt19oxAgQIECBAoNUEBK9W6xHbQ4AAAQIECJRWoLu0e9aiO7Z746qYMmt+VLqn5Vu4Z9um2LO5L7p7l9Xd4oHdO2P3urti14a7o+uAxTF14QMiKsNy857dMTCw5z7tVLqm7vtuWJ3KlK77trOvtikCBAgQIECgQAHBq0DMkZra1bc8tlz73dj8y/Nj2y0/j0POviILW+tiw/c+GFuu+26+2NSDHxIHvvgzMe2w44Y2kwWljRd/Itb99z9HCmnTDnt47Ljj13md3ue/Pw544itq9df/z3tj3XfeVfucJroXHh5LXvfd6Jq3JP9+3YXvjvUX/kutzsK//Hj0nHhG7bMJAgQIECBAYPwEKgNZqdd8f39/vdktO++4L1VaYtt2rr41Vrz7pDw0VTeo5+SXRf8ln42unkUxsHNrbV73vEPikLdcGVNm9FSrxtpvvyUPaFMPfFAc8qZLozJtVuxc/fuszcflyy160adizgmn1+pvvupbcc9nXlj7/ICP9NWurlW/XHfBW2P9RR+IA1/6+Zj96NOqX/tLgAABAgRaSuDqM+pGlJba1urG9PTsO4dXvxv8d9i9qsGzTBchMHXR4bH0X++InpP2haEUuha/6vxY+p7fxWHvujnmHP+CfFW71t8V25f/srbaPdv689CVvphx5BPz0JWmpy56YP45Tfdf+oX0p1ZmP/I5Meu4Z9U+b7/tF7Xp6sSutXfmV8JSXYUAAQIECBCYOAHBawKsK1O6Y/rhx9fWdODLz41ZD316/mxVuro15/jn1ebtXHlzbbrSPT27+jUn/zz4Klj6omt2b/79zlW/zf8O/s+8p/1d7ePwYLZny/rYdOXXYu4pZ0ak57sUAgQIECBAYMIEBK8Joq507XucLt0uHFymLjm69nF3/+radHoA/9C3XhWLzzwv5j3zH2rfb19+VWy/45r88+D61QrTD39M/ixY+rzp8vNi96a+6qzY9Ivz8+nZ915lq80wQYAAAQIECIy7gOA17sSNV5CuiI1UuuYenN06fHZUKpXov+yLcde7T45V55wWu1b/bqRF8u/nPumVtfmbr/hKbTrd5kzPhHXN2XvFrDbDBAECBAgQIDDuAoLXuBPf/xX0/+xLccfZD421578h5j7l1XHYO2+M2Y+q/1B8en6reptyw8WfjGyciez5satix13XRc/jXnz/N0oLBAgQIECAwJgFBK8xk03sAmvPPyvWfPH/RaVrWiw569L8Qfz07Fejkm5n9pz88rzarjW3xrbf/jS7YnZupF9HzjjixEaLm0+AAAECBAiMg4DgNQ6oRTWZwtKGH30sb27+qW/Jf804lrZ7Hv+SWvX13/9QPoTFAemh+uy2pUKAAAECBFpboP2GkhiNp+A1GqVJqrP1xh/W1jz1oIfUptPEnu2bhnze34c07MTMY56Wz9p6/ffyv3Mes+8XlPtbxncECBAgQIDA+AkIXuNnO6TlgZ3b933etWPfdDa1Z/uW2ueBbHT6Whn0+p+NP/lUDGTLpVcHbbnmwth8768TU900RMTuDSvz57hqy947MXhk+zmP/YuYMnvB8Co+EyBAgAABAhMkIHhNAPTAnl3Zq4J+VlvTlkFXstJD79WrUanClht/kAesND39gY9Nf/Ky6edfjtv+ujdu+6sFsfoLL4tZxz6jOivufPsjs/8/Ig9ltS/vnZh19FMjjYifSs/jXnTvt/4QIECAAAECkyEgeI2z+u6N98QdZz04Ng0b0uGOtzwsH1/r7g8/K/q+9ve1rdh592/i9jcsi/Q3hat5zzqrNi+9YuiAU14Zh77ll9H7gg9Eer9jKlOyoSEWv/Kr93k10N6ZXXHAU1+z96H6QUEun+c/BAgQIECAwIQKeFfjhHI3t7L06qB0K3HqgUfko93XWsmulu3euDLSWF/1ysCu7fny3b3L6lUzjwABAgQItJDAQFx9Rgttzig3pdG7GkceuXOUK1Bt/AXS64KGvzIoX2v268RGoSvVS8NPCF3j30/WQIAAAQIEGgm41dhIyHwCBAgQIECAQEECgldBkJohQIAAAQIECDQSELwaCZlPgAABAgQIEChIQPAqCFIzBAgQIECAAIFGAoJXIyHzCRAgQIAAAQIFCQheBUFqhgABAgQIEChOoBLlfK+w4FXcMaIlAgQIECBAgEBdAcGrLo+ZBAgQIECAAIHiBASv4iy1RIAAAQIECBCoKyB41eUxkwABAgQIECBQnIDgVZyllggQIECAAAECdQUEr7o8ZhIgQIAAAQIEihMQvIqz1BIBAgQIECBAoK6A4FWXx0wCBAgQIECAQHECgldxlloiQIAAAQIECNQVELzq8phJgAABAgQIEChOQPAqzlJLBAgQIECAAIG6AoJXXR4zCRAgQIAAAQLFCQhexVlqiQABAgQIECBQV0DwqstjJgECBAgQIECgOAHBqzhLLREgQIAAAQIFCQwU1E6rNSN4tVqP2B4CBAgQIECgtAKCV2m71o4RIECAAAECrSZQ2uA1ravVqG0PAQIECBAgMFqBsp7HSxu8emeMtmvVI0CAAAECBFpNoKzn8dIGr6U9rXYI2R4CBAgQIEBgtAJlPY+XNngd3VvW30OM9pBVjwABAgQItK9AWc/jpQ1exy9u34PNlhMgQIAAgU4XKOt5vLTB66QlEQs859Xp/27tPwECBAi0oUA6f6fzeBlLaYNX6qxTj3C7sYwHrX0iQIAAgXILlPn8XergdfqR5T4w7R0BAgQIECijQJnP36UOXotnRZx5bBkPSftEgAABAgTKKZDO2+n8XdZS6uCVOu1Vxw3EMb1l7T77RYAAAQIEyiOQztfpvF3mUvrglTrv7BMGoqwj4Jb54LRvBAgQINA5Auk8nc7XZS8dEbyOWhDxvpPL35llP1jtHwECBAiUVyCdp9P5uuylI4JX6sRTDo348CmufJX9gLZ/BAgQINBeAulKVzo/p/N0J5SOCV6pM1Onnvt0z3x1woFtHwkQIECg9QXSM13pvNwpoSv1SGUgK/W6pr+/v97stp13ztWV+OS1bbv5NpwAAQIECLS1QPr1YhkfpO/pqf+y6I4NXuloXbUl4rybIi64pRJrt7X18WvjCRAgQIBAywukEenT4KhpnK6yDhkheI3yMLxsRcQVqyJu6KvE7dlFvr4siO3YPcqFVSNAgAABAgSGCKRnt3qzoLU0uwCUXnid3r1Y1tcADd5xwWuwhmkCBAgQIECAwDgKNApeHfVw/Tg6a5oAAQIECBAg0FBA8GpIpAIBAgQIECBAoBgBwasYR60QIECAAAECBBoKCF4NiVQgQIAAAQIECBQjIHgV46gVAgQIECBAgEBDAcGrIZEKBAgQIECAAIFiBASvYhy1QoAAAQIECBBoKCB4NSRSgQABAgQIECBQjIDgVYyjVggQIECAAAECDQUEr4ZEKhAgQIAAAQIEihEQvIpx1AoBAgQIECBAoKGA4NWQSAUCBAgQIECAQDECglcxjlohQIAAAQIECDQUELwaEqlAgAABAgQIEChGQPAqxlErBAgQIECAAIGGAoJXQyIVCBAgQIAAAQLFCAhexThqhQABAgQIECDQUEDwakikAgECBAgQIECgGAHBqxhHrRAgQIAAAQIEGgoIXg2JVCBAgAABAgQIFCMgeBXjqBUCBAgQIECAQEMBwashkQoECBAgQIAAgWIEBK9iHLVCgAABAgQIEGgoIHg1JFKBAAECBAgQIFCMgOBVjKNWCBAgQIAAAQINBQSvhkQqECBAgAABAgSKERC8inHUCgECBAgQIECgoUB3wxodUuGyFRFXrIq4oa8St/dH9G2L2LG7Q3bebhIgQIAAgYIFpnVF9M6IWNoTcXTvQBy/OOKkJQWvpA2bqwxkpd529/dnKaSkZdWWiPNuirjglkqszYKWQoAAAQIECIyfwIIsiJ16xECcfmTE4lnjt57JbLmnJ0uadUrHBq9zrq7EJ6+tI2MWAQIECBAgMG4CZx4b8arj6l77Gbd1j2fDgtcw3RvXRrzj8kpc3zdsho8ECBAgQIDAhAoc0xtx9gkDcdSCCV3tuK6sUfDqqIfrL74z4oUXCV3jesRpnAABAgQIjFIgXQRJ5+V0fu6U0jHBK3Xq31xc8cB8pxzZ9pMAAQIE2kIg/ZAtnZ87JXx1RPBKtxdff0mlLQ5AG0mAAAECBDpRIJ2n0/m67KUjgld6psvQEGU/lO0fAQIECLSzQDpPp/N12Uvpg1f69aIH6ct+GNs/AgQIECiDQDpfp/N2mUupg1cap8uQEWU+fO0bAQIECJRNIJ230/m7rKXUwSsNjqoQIECAAAEC7SVQ5vN3qYNXGpFeIUCAAAECBNpLoMzn79IGr/TuRa8Baq9/aLaWAAECBAgkgXT+TufxMpbSBq/0wmuFAAECBAgQaE+Bsp7HSxu8buhzm7E9/6nZagIECBAgEFHW83hpg9ft/Q5bAgQIECBAoF0FynoeL23w6svuDysECBAgQIBAewqU9Txe2uBlpPr2/IdmqwkQIECAQBIo63m8tMHLYUuAAAECBAgQaDUBwavVesT2ECBAgAABAqUVELxK27V2jAABAgQIEGg1AcGr1XrE9hAgQIAAAQKlFRC8Stu1dowAAQIECBBoNQHBq9V6xPYQIECAAAECpRUQvErbtXaMAAECBAgQaDUBwavVesT2ECBAgAABAqUVELxK27V2jAABAgQIEGg1AcGr1XrE9hAgQIAAAQKlFRC8Stu1dowAAQIECBBoNQHBq9V6xPYQIECAAAECpRUQvErbtXaMAAECBAgQaDUBwavVesT2ECBAgAABAqUVELxK27V2jAABAgQIEGg1AcGr1XrE9hAgQIAAAQKlFRC8Stu1dowAAQIECBBoNQHBq9V6xPYQIECAAAECpRUQvErbtXaMAAECBAgQaDUBwavVesT2ECBAgAABAqUVELxK27V2jAABAgQIEGg1AcGr1XrE9hAgQIAAAQKlFRC8Stu1dowAAQIECBBoNQHBq9V6xPYQIECAAAECpRUQvErbtXaMAAECBAgQaDUBwavVemSSt2fXujtj2+8uneStiBjYvTM2//Ibk74dNoAAAQIECBQpIHgVqdnmbaWws/pzL4ltN/900vdk3X+9IzZe8tlJ3w4bQIAAAQIEihQQvIrUbPO21l3wtth2y88nfS+2XHNhbPjeByd9O2wAAQIECBAoWkDwKlp0lO3t2bYpdq76bezetGaUS0Ts7l8de7ZuHFX9gT27YveGu4fU3bn61hjYuXXId9UP6y/6QGz4wUeqHxv+HdixZdTbvmvtHUPa271hZbZs35Dvqh+2/ubHseoTz69+9JcAAQIECJRKoDKQlXp71N/fX292y8477kuV1tu2jHrjxR+PjT/9fOy8+ze17Zt68ENiwalvi1kPe1btu+pECmdrL3hrbM+uRKXglUr3vENixlFPigV//JbomntwtWoM7NqePZ91WWz59X/Gpiu+EjOPeVoseuEnYv3/vDc2/fy82LX+rrzu3Ce/OhY8990Rlb1G677zrlj/nezzoDJlxpz80+LXfDtmPPCEvXP27M7D2aYrvxY77rou/y7V6zn55TH/WWdFZdqsvfWy/dxx59WxObtytfnKr8fujStj2Qfujv7Lvhj92e3D7ct/mdebefRT48CXfSGmzJybf956w/dj5cf+dG8b9/63uh3znnlWzH3qXw+Z5wMBAgQIlFvg6jPqRpSW3Pmenp662yV41eUpbuaerRti9blnxparvxO9f/YvMeexZ+TB555Pnh5bb/pJvqIDX35uzH7kc2or3XT5f8Tqfz8zunoWxfxn/2PMPPopWeC5PtZ+882x857fRQoli178mVpgW/uNN8WGH360tvz0ZY/Kp1PQ6V54eOxac2ttXu8LPhgHPOHl+eetN/4wC0O/inX/+fb88+xHnxaz7w2BMx5ySnTNWRh7tvXH6s+/LLb99pJY8Jx/ju5FD8xuS/6sFtimHvigOORNl+bha/NV34p7PvPC2rrSRM9JL8yC17n32Y60v2m/U9lx57Wxc+VNcU/2nFkqKZDOf8Yb904fckxMO/iofNp/CBAgQKAzBMoYvNxqnKBjd+03/3Fv6Hr+++OAJ70qu8pzQBacemJedqWoWvov/UJ1Mg8hKXSlkq5a9Zz80ujuXZaFrGfGQa/5Vh660u3KVZ94Qexae3teb8Fz3xWHvvWqfDr9Jw9ciw6Ppe+9NQ77p2vi4L//QW3e5iu/WpueedRT8narX0xf+vDIw1cWwFLoSiU97L7l2v+Jxa/6RrYtL4uZD3lSdpXrTTH3aX+bz09BcN29V81SmFr2/jvz4JTPzP6z7dYr4tCzr8y347B3XFebl0Jaum2ZyrRDj83XW73K1b1gaW07hK6cyH8IECBAoM0FBK8J6MDtt/0iUqhKtwh7HvfiIWucccSJMeOIx+bfpem8ZLfq1nz5r/LJ6Yc/Jr9luHfG3v92L3xAzD9179Wp9E3f199Qmz118R/koSx9ka5CHfiSz9bCU7plWL0Klt8qrH+XudZmut258ccfj2mHPDRmPOik2vdpYtaxz6h93vTzL9em0+3D6Yc+rPb54L/+z1rYSgGyekUtVdi5+ve1eiYIECBAgECZBbrLvHOtsm/92TNdqaTbdpXuaUM3qzIlDn7dRdnzW2ui64AD83lpLK3qc1DTBoWXwQvOfsSfRN9X/y6JLzZZAABAAElEQVT/Kt2+TA/TV6bs7c7K1JnZJaZNUZmePaeVtT+4TMuuZqW209Wy9KB97bmswZWiMuRTdTytFNZuf+MDh8wb/LD+3of/N9Se2YpB+5pv06AlU4irluqza9XP1b+VYdte/d5fAgQIECDQrgKC1wT03PY7rsnX0r3gsP2vLQsY1dCVKuxcdXOt3tTs6tD+SqqfrpRVh3/Ylf1iMV3talQqXVMbVak9dF+tuOPuG/PJWQ/9ozjgKa+ufr3fv5Xps/f7/X2+HM123GchXxAgQIAAgfYWELzGu//SL/zu+HW+lj2jHDoiDbdQLQO7dlQn7/O3u/cBEfeOu5Wuko0meN2nkf19ce+vHauzdq68Nwh2T42ZR55S/Xr8/w7bjvFfoTUQIECAAIHxFRh6H2p819WZrWfhofqwePrl4GhK19yDatWqD87Xvhg00TWnt/YpPT9WVKkMu9WYfgiQyo479w4hUdR6tEOAAAECBDpNQPCagB6vPqeVnq3a9tuf7n+NA3ti7bfOzgclHXzlauvNl2QvLtz/OCaDn43qzn69WFgZdqVp6kFH5k2n4Si2XHfRiKtJY4elMcMKK1McnoVZaogAAQIEWkLAmW0CuqH6S8K0qjVf+dtsRPl9txKrq0+DmO6485romt0b3fMPzX+RmOalsLPt95dXqw35u3353qEjZj38/8Sont0asvTQD4MfZB8+Ov7gXzKu/dY/xp4t64cunH1KgXL1F/5v7Rea96nQxBd7Nq9rYimLECBAgACB1hUQvCagb+b+4WtrtxvTiPUr/uWUbCT5L+ejv6fAcs+nz4j1F/5LpEFN89Hks4ftF/7lx2tbtv7Cd+e/Wqx9kU1sv/1X+SCq6bsFz3nn4Fm11wIN7No25Pv0Yc/2TbXv9uzYWpvumrdvBPzt9z6Tln6xmEabn/2o5+ZDYaTKafvves8TYuv134sUjFL4S6Per/r4n0UKgDMe/IRam9XxudIX6QXcg8vAjs21j4PrpS+7Fz0on5eCaPVXk5uu+OqoX5dUa9gEAQIECBBoMQHBawI6JP0CceFffKy2pvTqntXnvjLueueJcfcHnxGbf3VBPkjq1Gw0+GpJv1ic/+w35x+33vijWHv+P9RCSHrP4ep/f0U+L7U7ddBtxh0rrs+HikgzU0hKD91Xy57Na7MrU5dWP8a27L2I1ZLG3Uoj5KeShqdY9ak/zwNWuj2arqYtPGPfiPjpKtzKf3tuLH/90ixEPjEbOPVdeVha9KJPV5vLR7of/EzbtntH508V0quNtt7ww1rdrTdkA7sOup06bclR+bw05MXdH3pWrPzoqdmI/JnflK7aMiYIECBAgEA7Cnhl0AT2WrpKtebLf137lWNadXotzqIzzok0UOr+Snp/YRrBvvo8V6q3/dYr85B04Cv+Y8itvfUXvifW/ffQq1+pzQXPeUdMO+y4WPmRP77PKtIo9AtP/1D+fQqA6epbtcx7xhvyVxVV3+mY1nvPp/+y9s7HWr2nvy7mZa/2qY4Jll5BtPKjf1KdXfubBltd+JfnxJ1vObYWDqsz0yuNDnt79uvP7GpfGlB1xbsfV6uThrFY9NLPZVcN67//qtqWvwQIECBQDoEyvjJI8JqEYzM9I7XznlvyK1VTZi9ovAXZg/c719yWXcFK42lVshHkj4n0Op1qIGrcwOhrpKtMaRyxaVkgrAap4Uvv3nB37MiupqXXCU1d/KAYPjjq8PrNfE63JneuuCF/CfjgMc6aacsyBAgQINCeAoJXG/XbcV8aOvp6G226TSVAgAABAgQygTIGL894ObQJECBAgAABAhMkIHhNELTVECBAgAABAgQEL8cAAQIECBAgQGCCBASvCYK2GgIECBAgQICA4OUYIECAAAECBAhMkIDgNUHQVkOAAAECBAgQELwcAwQIECBAgACBCRIQvCYI2moIECBAgAABAoKXY4AAAQIECBAgMEECgtcEQVsNAQIECBAgQEDwcgwQIECAAAECBCZIQPCaIGirIUCAAAECBAgIXo4BAgQIECBAgMAECQheEwRtNQQIECBAgAABwcsxQIAAAQIECBCYIAHBa4KgrYYAAQIECBAgIHg5BggQIECAAAECEyQgeE0QtNUQIECAAAECBAQvxwABAgQIECBAYIIEBK8JgrYaAgQIECBAgIDg5RggQIAAAQIECEyQgOA1QdBWQ4AAAQIECBAQvBwDBAgQIECAAIEJEiht8JrWNUGCVkOAAAECBAgULlDW83hpg1fvjMKPAQ0SIECAAAECEyRQ1vN4aYPX0p4JOjKshgABAgQIEChcoKzn8dIGr6N7Bwo/CDRIgAABAgQITIxAWc/jpQ1exy+emAPDWggQIECAAIHiBcp6Hi9t8DppScQCz3kV/y9BiwQIECBAYJwF0vk7ncfLWEobvFJnnXqE241lPGjtEwECBAiUW6DM5+9SB6/Tjyz3gWnvCBAgQIBAGQXKfP4udfBaPCvizGPLeEjaJwIECBAgUE6BdN5O5++yllIHr9RprzpuII7pLWv32S8CBAgQIFAegXS+TuftMpfSB6/UeWefMBBlHQG3zAenfSNAgACBzhFI5+l0vi576YjgddSCiPedXP7OLPvBav8IECBAoLwC6TydztdlLx0RvFInnnJoxIdPceWr7Ae0/SNAgACB9hJIV7rS+TmdpzuhdEzwSp2ZOvXcp3vmqxMObPtIgAABAq0vkJ7pSuflTgldqUcqA1mp1zX9/f31ZrftvHOursQnr23bzbfhBAgQIECgrQXSrxfL+CB9T0/9l0V3bPBKR+uqLRHn3RRxwS2VWLutrY9fG0+AAAECBFpeII1InwZHTeN0lXXICMFrlIfhZSsirlgVcUNfJW7PLvL1ZUFsx+5RLqwaAQIECBAgMEQgPbvVmwWtpdkFoPTC6/TuxbK+BmjwjgtegzVMEyBAgAABAgTGUaBR8Oqoh+vH0VnTBAgQIECAAIGGAoJXQyIVCBAgQIAAAQLFCAhexThqhQABAgQIECDQUEDwakikAgECBAgQIECgGAHBqxhHrRAgQIAAAQIEGgoIXg2JVCBAgAABAgQIFCMgeBXjqBUCBAgQIECAQEMBwashkQoECBAgQIAAgWIEBK9iHLVCgAABAgQIEGgoIHg1JFKBAAECBAgQIFCMgOBVjKNWCBAgQIAAAQINBQSvhkQqECBAgAABAgSKERC8inHUCgECBAgQIECgoYDg1ZBIBQIECBAgQIBAMQKCVzGOWiFAgAABAgQINBQQvBoSqUCAAAECBAgQKEZA8CrGUSsECBAgQIAAgYYCgldDIhUIECBAgAABAsUICF7FOGqFAAECBAgQINBQQPBqSKQCAQIECBAgQKAYAcGrGEetECBAgAABAgQaCgheDYlUIECAAAECBAgUIyB4FeOoFQIECBAgQIBAQwHBqyGRCgQIECBAgACBYgQEr2IctUKAAAECBAgQaCggeDUkUoEAAQIECBAgUIyA4FWMo1YIECBAgAABAg0FuhvW6JAKl62IuGJVxA19lbi9P6JvW8SO3R2y83aTAAECBAgULDCtK6J3RsTSnoijewfi+MURJy0peCVt2FxlICv1tru/P0shJS2rtkScd1PEBbdUYm0WtBQCBAgQIEBg/AQWZEHs1CMG4vQjIxbPGr/1TGbLPT1Z0qxTOjZ4nXN1JT55bR0ZswgQIECAAIFxEzjz2IhXHVf32s+4rXs8Gxa8huneuDbiHZdX4vq+YTN8JECAAAECBCZU4JjeiLNPGIijFkzoasd1ZY2CV0c9XH/xnREvvEjoGtcjTuMECBAgQGCUAukiSDovp/Nzp5SOCV6pU//m4ooH5jvlyLafBAgQINAWAumHbOn83CnhqyOCV7q9+PpLKm1xANpIAgQIECDQiQLpPJ3O12UvHRG80jNdhoYo+6Fs/wgQIECgnQXSeTqdr8teSh+80q8XPUhf9sPY/hEgQIBAGQTS+Tqdt8tcSh280jhdhowo8+Fr3wgQIECgbALpvJ3O32UtpQ5eaXBUhQABAgQIEGgvgTKfv0sdvNKI9AoBAgQIECDQXgJlPn+XNnildy96DVB7/UOztQQIECBAIAmk83c6j5exlDZ4pRdeKwQIECBAgEB7CpT1PF7a4HVDn9uM7flPzVYTIECAAIGIsp7HSxu8bu932BIgQIAAAQLtKlDW83hpg1dfdn9YIUCAAAECBNpToKzn8dIGLyPVt+c/NFtNgAABAgSSQFnP46UNXg5bAgQIECBAgECrCQherdYjtocAAQIECBAorYDgVdqutWMECBAgQIBAqwkIXq3WI7aHAAECBAgQKK2A4FXarrVjBAgQIECAQKsJCF6t1iO2hwABAgQIECitgOBV2q61YwQIECBAgECrCQherdYjtocAAQIECBAorYDgVdqutWMECBAgQIBAqwkIXq3WI7aHAAECBAgQKK2A4FXarrVjBAgQIECAQKsJCF6t1iO2hwABAgQIECitgOBV2q61YwQIECBAgECrCQherdYjtocAAQIECBAorYDgVdqutWMECBAgQIBAqwkIXq3WI7aHAAECBAgQKK2A4FXarrVjBAgQIECAQKsJCF6t1iO2hwABAgQIECitgOBV2q61YwQIECBAgECrCQherdYjtocAAQIECBAorYDgVdqutWMECBAgQIBAqwkIXq3WI7aHAAECBAgQKK1Ad2n3rMV3bGDHltj2u0tjz5YNMW3pI2LqogdGVCotvtU2jwABAgQIELg/AoLX/dFrZtmBPbHmy38Vm6/6ZnT3PiB23HVd3sq0Qx4aS974k6h0T2umVcsQIECAAAECbSDgVuMEd9KGH/1b9F92bix+zbfjkDf/LOY++dX5FqQAtvU3P57grbE6AgQIECBAYCIFXPGaQO1da2+Ptd94U77GGYcfn/+d/yf/FHt2bstuOa6LGUecOIFbs29V2275eXTPXxLdC5bu+9IUAQIECBAgULiA4FU46cgN7rhz723F7oWH157nSrcWF57+oZEXGuc5u9bdGav+7Tmx+P99XfAaZ2vNEyBAgAABtxon8BjYuermCVxb41UN7Noe93zmhbFn26bGldUgQIAAAQIE7reA4HW/CUffwI6VN42+cqqZPYi/e/2KGMhuRY6pjGK5gZ1b457Pvii233rlqJves2V97Nm6oWH9gd078+2uVty94W7hrorhLwECBAh0tEBlICv1BPr7++vNbtl5x32pNYZmSEHljjc/JHcafGVpyow5NbvFr/pGzHjQSbXPW6//Xqz//odi282X1L6bevBDYs4j/zTmPu1vozJ1Ru37wROjXW5gz65Y+ZE/HtJ+aqe6TUvfu7z268q0/Wu//dbYeu13Y9f6u/LVdc87JOY9+03Rc+IZ2S3Tfdl956rfxuZfnB8b//fTMevhfxzzn/GGWHPea2PLtf+TL7fk9T+K6Yc/Jp/2HwIECBAg0Ejg6jPqRpRGi0/K/J6enrrrFbzq8tz/mSnkbLvpJ/nVq77swfqdd/8mDzgHvvzcWuPTH/CYmDJrXnaBa1f+8P3GH388Dyjznva6SMNMbL35f2PNl/b++nHqgQ+Kxa/8akw96MG15ce6XKq/5apvx5Ys4G26/Ly8nfnPfnOktmNKV8x+xKl5oNq58uZYec5pWdCbHvOf+Q/ZdvdE/8+/HJt/+c18mZ6T/jIWnnFOPr3ifU8ecvUstbHznltqw2WkSvOf9aaY96yz8vr+Q4AAAQIEGgmUMXh5uL5Rr9/P+ZUp3THzqKfkrXT/6Jw8eFWmzoyZR//hfVru/+nnI4WuVBa/4j+ia+5B+XTPwgdE15zeWPWJF2Rh5ndxz+dflo359ePsYtPe7mtmudmPPi2/bVgNXjOPfmpMf8Cj8/Wl/6Rwlm5FDmzfFEte/8Po6lmUz5tx1JNj15rlsX35L7NhMb4Ys47745h17B/FQX/9X7EpC2V9X/27vN7mX10Qc45/QSx64Sdi408+ldW/KmalQKcQIECAAIEOFth3n6iDEVph13dvWBl9X3ldvinznvnGWuiqbtushz0ru333f/KPO+74dfRnYSaVZpfLF67zn81XfDW/WjXnhNNroStVT2Fv1nHPri25+dcX5NNTps+O2Y96bu37NNH7gg/EtMOOy66K/Vs+Ztm0JUcPme8DAQIECBDoNAFXvFqkx7f+dt/zXNMO2vtM2PBN63nsX8SWX/9X/vWW6y6KA570qmh2ueFtZ5FqyFdpkNdUNvzgI7XbkdUKu/tXVyejOkRG+iJdlauWOY95Xn5rsvrZXwIECBAgQCBC8GqRo2DnihtqW9K14LDa9OCJmQ95Uu3jjjuvzaebXa7WUHVi2Hsid9x5TT5nXvaA/IwHn1ytdZ+/U6aP8BBh19T71PUFAQIECBDodAHBq0WOgF3ZrcZayYZj2F+pTJuVP5iffh2ZrjqlF203u1xqa6SyZ/Pa2vAPXQcsjplHnjJSVd8TIECAAAECYxDwjNcYsMazave9D9KndaTR5EcqXfMPzWeloR9SeGp2ufu0P+iK1+BQtmPQlbj7LOMLAgQIECBAYEwCgteYuMav8tRBz3Vt+91lI65o972hbPq973psdrnhK6gMDl7ZOGFprK5U+i/5bOzeuGp49b2fsyHg+r72+th6w/f3P9+3BAgQIECAwBABwWsIx+R9mPGgfS/ITsNDpNuIw8vujffUbgHOOvaZ+exml8sXHjT46Z6tG4esbubRe4fASF+mAVRjz+4h89OH9d/7YGy8+BPZMBQGRb0Pji8IECBAgMB+BASv/aCM11e7+9fkTQ/+VWB1Xd0Llsb8U99W/Zj/mrD24d6Jzb/4ej6VBjrtOfml+XSzy6WFu+YtydtI/6neUty19o5Iv5ic+4evrc1L43OlgVS33/bLfOyvrTf+MB+Rft0Fb43e570vH/w1VR78aqNda26tLW+CAAECBAgQ2CsgeE3QkbBz9e8jjb9VLfu7nTj3KX+VDaz61LzKuv9+Z2y64iv5iPfpizQAad/5afT4ObHoxZ+JyqBfDTa7XD5S/b0blG4Zrs4GZl3xL0/MrqptjKmL/yDSaPbVsvWGH8SK954Sy//u0Fj50T/Jb0H2PP4lccApr6xWia03/qg2nfZvx9031j6bIECAAAECBLLBm7yrcXwPg/Suw1XZ1aJtt/z8PitK71+c/+x/3PuKnurc7Jbehh/9W6z95t7Qk0aM78qet0qhLb3PcdFLP1d7/qq6SP63yeXWnn9Wtr6P5U1UQ10arLVa+i/9QvYao7NqtzjT96le7/M/kI9MH9mzYeml2He94/h8VP3qctW/aR8PfXO279mriBQCBAgQIDAWgTK+MkjwGssRMIF1B3Ztz18vlK6Upfc4Tjv02GyA0oUNt6CZ5dLo9+n259QlR9VeQzRkRQN7YufqW2NX323RvfDwmNq7TJAaAuQDAQIECIyHgOA1Hqrj1OZxXxo6Evs4rUazBAgQIECAwDgJlDF4ecZrnA4WzRIgQIAAAQIEhgsIXsNFfCZAgAABAgQIjJOA4DVOsJolQIAAAQIECAwXELyGi/hMgAABAgQIEBgnAcFrnGA1S4AAAQIECBAYLiB4DRfxmQABAgQIECAwTgKC1zjBapYAAQIECBAgMFxA8Bou4jMBAgQIECBAYJwEBK9xgtUsAQIECBAgQGC4gOA1XMRnAgQIECBAgMA4CQhe4wSrWQIECBAgQIDAcAHBa7iIzwQIECBAgACBcRIQvMYJVrMECBAgQIAAgeECgtdwEZ8JECBAgAABAuMkIHiNE6xmCRAgQIAAAQLDBQSv4SI+EyBAgAABAgTGSUDwGidYzRIgQIAAAQIEhgsIXsNFfCZAgAABAgQIjJOA4DVOsJolQIAAAQIECAwXELyGi/hMgAABAgQIEBgnAcFrnGA1S4AAAQIECBAYLiB4DRfxmQABAgQIECAwTgKC1zjBapYAAQIECBAgMFygtMFrWtfwXfWZAAECBAgQaBeBsp7HSxu8eme0y6FlOwkQIECAAIHhAmU9j5c2eC3tGd6FPhMgQIAAAQLtIlDW83hpg9fRvQPtcmzZTgIECBAgQGCYQFnP46UNXscvHtaDPhIgQIAAAQJtI1DW83hpg9dJSyIWeM6rbf6B2VACBAgQIFAVSOfvdB4vYylt8EqddeoRbjeW8aC1TwQIECBQboEyn79LHbxOP7LcB6a9I0CAAAECZRQo8/m71MFr8ayIM48t4yFpnwgQIECAQDkF0nk7nb/LWkodvFKnveq4gTimt6zdZ78IECBAgEB5BNL5Op23y1xKH7xS5519wkCUdQTcMh+c9o0AAQIEOkcgnafT+brspSOC11ELIt53cvk7s+wHq/0jQIAAgfIKpPN0Ol+XvXRE8EqdeMqhER8+xZWvsh/Q9o8AAQIE2ksgXelK5+d0nu6E0jHBK3Vm6tRzn+6Zr044sO0jAQIECLS+QHqmK52XOyV0pR6pDGSlXtf09/fXm9228865uhKfvLZtN9+GEyBAgACBthZIv14s44P0PT31XxbdscErHa2rtkScd1PEBbdUYu22tj5+bTwBAgQIEGh5gTQifRocNY3TVdYhIwSvUR6Gl62IuGJVxA19lbg9u8jXlwWxHbtHubBqBAgQIECAwBCB9OxWbxa0lmYXgNILr9O7F8v6GqDBOy54DdYwTYAAAQIECBAYR4FGwaujHq4fR2dNEyBAgAABAgQaCgheDYlUIECAAAECBAgUIyB4FeOoFQIECBAgQIBAQwHBqyGRCgQIECBAgACBYgQEr2IctUKAAAECBAgQaCggeDUkUoEAAQIECBAgUIyA4FWMo1YIECBAgAABAg0FBK+GRCoQIECAAAECBIoRELyKcdQKAQIECBAgQKChgODVkEgFAgQIECBAgEAxAoJXMY5aIUCAAAECBAg0FBC8GhKpQIAAAQIECBAoRkDwKsZRKwQIECBAgACBhgKCV0MiFQgQIECAAAECxQgIXsU4aoUAAQIECBAg0FBA8GpIpAIBAgQIECBAoBgBwasYR60QIECAAAECBBoKCF4NiVQgQIAAAQIECBQjIHgV46gVAgQIECBAgEBDAcGrIZEKBAgQIECAAIFiBASvYhy1QoAAAQIECBBoKCB4NSRSgQABAgQIECBQjIDgVYyjVggQIECAAAECDQUEr4ZEKhAgQIAAAQIEihEQvIpx1AoBAgQIECBAoKGA4NWQSAUCBAgQIECAQDECglcxjlohQIAAAQIECDQUELwaEqlAgAABAgQIEChGQPAqxlErBAgQIECAAIGGAoJXQyIVCBAgQIAAAQLFCAhexThqhQABAgQIECDQUEDwakikAgECBAgQIECgGAHBqxhHrRAgQIAAAQIEGgoIXg2JVCBAgAABAgQIFCMgeBXjqBUCBAgQIECAQEMBwashkQoECBAgQIAAgWIEBK9iHLVCgAABAgQIEGgoIHg1JFKBAAECBAgQIFCMgOBVjKNWCBAgQIAAAQINBQSvhkQqECBAgAABAgSKERC8inHUCgECBAgQIECgoYDg1ZBIBQIECBAgQIBAMQKCVzGOWiFAgAABAgQINBQQvBoSqUCAAAECBAgQKEagMpCVYprSCgECBAgQIECAQD0BV7zq6ZhHgAABAgQIEChQQPAqEFNTBAgQIECAAIF6AoJXPR3zCBAgQIAAAQIFCgheBWJqigABAgQIECBQT0DwqqdjHgECBAgQIECgQAHBq0BMTREgQIAAAQIE6gkIXvV0zCNAgAABAgQIFCggeBWIqSkCBAgQIECAQD0BwauejnkECBAgQIAAgQIFBK8CMTVFgAABAgQIEKgnIHjV0zGPAAECBAgQIFCggOBVIKamCBAgQIAAAQL1BASvejrmESBAgAABAgQKFBC8CsTUFAECBAgQIECgnoDgVU/HPAIECBAgQIBAgQKCV4GYmiJAgAABAgQI1BMQvOrpmEeAAAECBAgQKFBA8CoQU1MECBAgQIAAgXoCglc9HfMIECBAgAABAgUKCF4FYmqKAAECBAgQIFBPQPCqp2MeAQIECBAgQKBAAcGrQExNESBAgAABAgTqCQhe9XTMI0CAAAECBAgUKCB4FYipKQIECBAgQIBAPQHBq56OeQQIECBAgACBAgUErwIxNUWAAAECBAgQqCcgeNXTMY8AAQIECBAgUKCA4FUgpqYIECBAgAABAvUEBK96OuYRIECAAAECBAoUELwKxNQUAQIECBAgQKCegOBVT8c8AgQIECBAgECBAoJXgZiaIkCAAAECBAjUExC86umYR4AAAQIECBAoUEDwKhBTUwQIECBAgACBegLd9Wbm89Y8vmEVFQgQIECAAAECBDKBhT+ty+CKV10eMwkQIECAAAECxQkIXsVZaokAAQIECBAgUFdA8KrLYyYBAgQIECBAoDgBwas4Sy0RIECAAAECBOoKCF51ecwkQIAAAQIECBQnIHgVZ6klAgQIECBAgEBdAcGrLo+ZBAgQIECAAIHiBASv4iy1RIAAAQIECBCoKyB41eUxkwABAgQIECBQnIDgVZyllggQIECAAAECdQUEr7o8ZhIgQIAAAQIEihMQvIqz1BIBAgQIECBAoK6A4FWXx0wCBAgQIECAQHECgldxlloiQIAAAQIECNQVELzq8phJgAABAgQIEChOQPAqzlJLBAgQIECAAIG6AoJXXR4zCRAgQIAAAQLFCQhexVlqiQABAgQIECBQV0DwqstjJgECBAgQIECgOAHBqzhLLREgQIAAAQIE6goIXnV5zCRAgAABAgQIFCcgeBVnqSUCBAgQIECAQF0Bwasuj5kECBAgQIAAgeIEBK/iLLVEgAABAgQIEKgrIHjV5TGTAAECBAgQIFCcgOBVnKWWCBAgQIAAAQJ1BQSvujxmEiBAgAABAgSKExC8irPUEgECBAgQIECgroDgVZfHTAIECBAgQIBAcQKCV3GWWiJAgAABAgQI1BUQvOrymEmAAAECBAgQKE5A8CrOUksECBAgQIAAgboCglddHjMJECBAgAABAsUJCF7FWWqJAAECBAgQIFBXQPCqy2MmAQIECBAgQKA4AcGrOEstESBAgAABAgTqCghedXnMJECAAAECBAgUJyB4FWepJQIECBAgQIBAXQHBqy6PmQQIECBAgACB4gQEr+IstUSAAAECBAgQqCsgeNXlMZMAAQIECBAgUJyA4FWcpZYIECBAgAABAnUFBK+6PGYSIECAAAECBIoTELyKs9QSAQIECBAgQKCugOBVl8dMAgQI/P/27gNMnqSuG3idIFEykiVJhlNAQSXdkSSDHCjpQDJHECQdQcKRkQwShQOEM5GDAUSiGFCS8IIkESMgooDCASr31vf6yumdm63/7v5rl5vbTz3P7sx0dVf3fLpn+jdV1dUECBAgME5A4DXOUkkECBAgQIAAga6AwKvLI5MAAQIECBAgME5A4DXOUkkECBAgQIAAga6AwKvLI5MAAQIECBAgME5A4DXOUkkECBAgQIAAga6AwKvLI5MAAQIECBAgME5A4DXOUkkECBAgQIAAga6AwKvLI5MAAQIECBAgME5A4DXOUkkECBAgQIAAga6AwKvLI5MAAQIECBAgME5A4DXOUkkECBAgQIAAga6AwKvLI5MAAQIECBAgME5A4DXOUkkECBAgQIAAga6AwKvLI5MAAQIECBAgME5A4DXOUkkECBAgQIAAga6AwKvLI5MAAQIECBAgME5A4DXOUkkECBAgQIAAga6AwKvLI5MAAQIECBAgME5A4DXOUkkECBAgQIAAga6AwKvLI5MAAQIECBAgME5A4DXOUkkECBAgQIAAga6AwKvLI5MAAQIECBAgME5A4DXOUkkECBAgQIAAga6AwKvLI5MAAQIECBAgME5A4DXOUkkECBAgQIAAga6AwKvLI5MAAQIECBAgME5A4DXOUkkECBAgQIAAga6AwKvLI5MAAQIECBAgME5A4DXOUkkECBAgQIAAga6AwKvLI5MAAQIECBAgME5A4DXOUkkECBAgQIAAga6AwKvLI5MAAQIECBAgME5A4DXOUkkECBAgQIAAga6AwKvLI5MAAQIECBAgME5A4DXOUkkECBAgQIAAga6AwKvLI5MAAQIECBAgME5A4DXOUkkECBAgQIAAga6AwKvLI5MAAQIECBAgME5A4DXOUkkECBAgQIAAga6AwKvLI5MAAQIECBAgME5A4DXOUkkECBAgQIAAga6AwKvLI5MAAQIECBAgME5A4DXOUkkECBAgQIAAga6AwKvLI5MAAQIECBAgME5A4DXOUkkECBAgQIAAga6AwKvLI5MAAQIECBAgME5A4DXOUkkECBAgQIAAga6AwKvLI5MAAQIECBAgME5A4DXOUkkECBAgQIAAga6AwKvLI5MAAQIECBAgME5A4DXOUkkECBAgQIAAga6AwKvLI5MAAQIECBAgME5A4DXOUkkECBAgQIAAga6AwKvLI5MAAQIECBAgME5A4DXOUkkECBAgQIAAga6AwKvLI5MAAQIECBAgME5A4DXOUkkECBAgQIAAga6AwKvLI5MAAQIECBAgME5A4DXOUkkECBAgQIAAga6AwKvLI5MAAQIECBAgME5A4DXOUkkECBAgQIAAga6AwKvLI5MAAQIECBAgME5A4DXOUkkECBAgQIAAga6AwKvLI5MAAQIECBAgME5A4DXOUkkECBAgQIAAga6AwKvLI5MAAQIECBAgME5A4DXOUkkECBAgQIAAga6AwKvLI5MAAQIECBAgME5A4DXOUkkECBAgQIAAga6AwKvLI5MAAQIECBAgME5A4DXOUkkECBAgQIAAga6AwKvLI5MAAQIECBAgME5A4DXOUkkECBAgQIAAga6AwKvLI5MAAQIECBAgME5A4DXOUkkECBAgQIAAga6AwKvLI5MAAQIECBAgME5A4DXOUkkECBAgQIAAga6AwKvLI5MAAQIECBAgME5A4DXOUkkECBAgQIAAga6AwKvLI5MAAQIECBAgME5A4DXOUkkECBAgQIAAga6AwKvLI5MAAQIECBAgME5A4DXOUkkECBAgQIAAga6AwKvLI5MAAQIECBAgME5A4DXOUkkECBAgQIAAga6AwKvLI5MAAQIECBAgME5A4DXOUkkECBAgQIAAga6AwKvLI5MAAQIECBAgME5A4DXOUkkECBAgQIAAga6AwKvLI5MAAQIECBAgME5A4DXOUkkECBAgQIAAga6AwKvLI5MAAQIECBAgME5A4DXOUkkECBAgQIAAga6AwKvLI5MAAQIECBAgME5A4DXOUkkECBAgQIAAga6AwKvLI5MAAQIECBAgME5A4DXOUkkECBAgQIAAga6AwKvLI5MAAQIECBAgME5A4DXOUkkECBAgQIAAga6AwKvLI5MAAQIECBAgME5A4DXOUkkECBAgQIAAga6AwKvLI5MAAQIECBAgME5A4DXOUkkECBAgQIAAga6AwKvLI5MAAQIECBAgME5A4DXOUkkECBAgQIAAga6AwKvLI5MAAQIECBAgME5A4DXOUkkECBAgQIAAga6AwKvLI5MAAQIECBAgME5A4DXOUkkECBAgQIAAga6AwKvLI5MAAQIECBAgME5A4DXOUkkECBAgQIAAga6AwKvLI5MAAQIECBAgME5A4DXOUkkECBAgQIAAga6AwKvLI5MAAQIECBAgME5A4DXOUkkECBAgQIAAga6AwKvLI5MAAQIECBAgME5A4DXOUkkECBAgQIAAga6AwKvLI5MAAQIECBAgME5A4DXOUkkECBAgQIAAga6AwKvLI5MAAQIECBAgME5A4DXOUkkECBAgQIAAga6AwKvLI5MAAQIECBAgME5A4DXOUkkECBAgQIAAga6AwKvLI5MAAQIECBAgME5A4DXOUkkECBAgQIAAga6AwKvLI5MAAQIECBAgME5A4DXOUkkECBAgQIAAga6AwKvLI5MAAQIECBAgME5A4DXOUkkECBAgQIAAga6AwKvLI5MAAQIECBAgME5A4DXOUkkECBAgQIAAga6AwKvLI5MAAQIECBAgME5A4DXOUkkECBAgQIAAga6AwKvLI5MAAQIECBAgME5A4DXOUkkECBAgQIAAga6AwKvLI5MAAQIECBAgME5A4DXOUkkECBAgQIAAga6AwKvLI5MAAQIECBAgME5A4DXOUkkECBAgQIAAga6AwKvLI5MAAQIECBAgME5A4DXOUkkECBAgQIAAga6AwKvLI5MAAQIECBAgME5A4DXOUkkECBAgQIAAga6AwKvLI5MAAQIECBAgME5A4DXOUkkECBAgQIAAga6AwKvLI5MAAQIECBAgME5A4DXOUkkECBAgQIAAga6AwKvLI5MAAQIECBAgME5A4DXOUkkECBAgQIAAga6AwKvLI5MAAQIECBAgME5A4DXOUkkECBAgQIAAga6AwKvLI5MAAQIECBAgME5A4DXOUkkECBAgQIAAga6AwKvLI5MAAQIECBAgME5A4DXOUkkECBAgQIAAga6AwKvLI5MAAQIECBAgME5A4DXOUkkECBAgQIAAga6AwKvLI5MAAQIECBAgME5A4DXOUkkECBAgQIAAga6AwKvLI5MAAQIECBAgME5A4DXOUkkECBAgQIAAga6AwKvLI5MAAQIECBAgME5A4DXOUkkECBAgQIAAga6AwKvLI5MAAQIECBAgME5A4DXOUkkECBAgQIAAga6AwKvLI5MAAQIECBAgME5A4DXOUkkECBAgQIAAga6AwKvLI5MAAQIECBAgME5A4DXOUkkECBAgQIAAga6AwKvLI5MAAQIECBAgME5A4DXOUkkECBAgQIAAga6AwKvLI5MAAQIECBAgME5A4DXOUkkECBAgQIAAga6AwKvLI5MAAQIECBAgME5A4DXOUkkECBAgQIAAga6AwKvLI5MAAQIECBAgME5A4DXOUkkECBAgQIAAga6AwKvLI5MAAQIECBAgME5A4DXOUkkECBAgQIAAga6AwKvLI5MAAQIECBAgME5A4DXOUkkECBAgQIAAga6AwKvLI5MAAQIECBAgME5A4DXOUkkECBAgQIAAga6AwKvLI5MAAQIECBAgME5A4DXOUkkECBAgQIAAga6AwKvLI5MAAQIECBAgME5A4DXOUkkECBAgQIAAga6AwKvLI5MAAQIECBAgME5A4DXOUkkECBAgQIAAga6AwKvLI5MAAQIECBAgME5A4DXOUkkECBAgQIAAga6AwKvLI5MAAQIECBAgME5A4DXOUkkECBAgQIAAga6AwKvLI5MAAQIECBAgME5A4DXOUkkECBAgQIAAga6AwKvLI5MAAQIECBAgME5A4DXOUkkECBAgQIAAga6AwKvLI5MAAQIECBAgME5A4DXOUkkECBAgQIAAga6AwKvLI5MAAQIECBAgME5A4DXOUkkECBAgQIAAga6AwKvLI5MAAQIECBAgME5A4DXOUkkECBAgQIAAga6AwKvLI5MAAQIECBAgME5A4DXOUkkECBAgQIAAga6AwKvLI5MAAQIECBAgME5A4DXOUkkECBAgQIAAga6AwKvLI5MAAQIECBAgME5A4DXOUkkECBAgQIAAga6AwKvLI5MAAQIECBAgME5A4DXOUkkECBAgQIAAga6AwKvLI5MAAQIECBAgME5A4DXOUkkECBAgQIAAga6AwKvLI5MAAQIECBAgME5A4DXOUkkECBAgQIAAga6AwKvLI5MAAQIECBAgME5A4DXOUkkECBAgQIAAga6AwKvLI5MAAQIECBAgME5A4DXOUkkECBAgQIAAga6AwKvLI5MAAQIECBAgME7gtOOKWvOSPv2dUt77rVI+Wx+PP2HN34zNJ0CAAAECpwCBMx5SyiVPX8phZyrl0vVRKgKvHATv+mYpb/iGw4EAAQIECBAYKZCKjI99e/o74qylXOfMI0tfy7I0NaamS9C1lgevjSZAgACBNRLIuTbn3H2eBF5pXpQIECBAgACB3Rdwzi0Cr/TpkggQIECAAIHdF3DOFXjpSL/7nzNrIECAAAECJwq4eE3g5aNAgAABAgQIENgrAU2NeyVtPQQIECBAgMC+FxB47ftDAAABAgQIECCwVwICr72Sth4CBAgQIEBg3wsIvPb9IQCAAAECBAgQ2CsBgddeSVsPAQIECBAgsO8FBF77/hAAQIAAAQIECOyVgMBrr6SthwABAgQIENj3AgKvfX8IACBAgAABAgT2SkDgtVfS1kOAAAECBAjsewGB174/BAAQIECAAAECeyUg8NoraeshQIAAAQIE9r2AwGvfHwIACBAgQIAAgb0SEHjtlbT1ECBAgAABAvteQOC17w8BAAQIECBAgMBeCQi89kraeggQIECAAIF9LyDw2veHwB4CnPsCpdzmQdtf4Y9fq5RbP6CUM5xp+8tudYlD6kfhhr9YynVvu9UlzHdKFbjUlUr5ufuc8rbuPD8yHccjt2zEcRuvez+9lItebuSWrS7rhy9UypEPL+Xav7A631QC+0DgtPvgPXqLOxW48GVKedIbd7r0tNzjaiBzs3uUcvmfKeWHzj5N+91nbb3My/5UKY94xTT/T1y3Pr/51pfdzpx3f8Ii6DpXDRBfs41t3M56zLs7AjmRH3ZEKRe7QimnP2Mp//W1Ut70wt1Z13ZKvcxPTsf/Za5SypnPVsoJJ5Tyuudup4T+vDs9bq96g1JufNdSfvTHSvnB003r+NRflfKFT/bXt5PcH7lUKb9Qf3Bdrn6Wz3zWqYSPvreUd79mJ6VZhsDaCwi81n4X7uIbOMs5Fl/KWc3x3yzlW98o5TvHl3LeC5dympMOn//+Tilf+edaI3XmUs74Q/WvPraUX9EXu/wi6GrTt/p4gYst5jzHeRbPRz9LbVxLF/zR9szjughc6sqlZB8m6Er63/+dHr/f//PD4WKHTkHXbmzLTo/bE2u3ahB42h/cja3aWOYFLl7K6U6/2Dcbc70isO8ENDXuu12+jTd8phpEJSWwOvompdyl/jq+7zVKedD1S/nnz015+f/JD0zT7nO1aZ7H3Lqe+P5nys+v6Ptfu5SvfnEx/3aeved1U/lZ/mWP2s6S25v3uKeU8i+fL+UfPl3Kbz51e8uemua+3u1LSdPTuqWX1OarHGctnfC99uz7+/jGF5SSz0V+rBxMuuvjSvmB05y8hK0ctwlGf/HRG5d9zbNLOabWRn/sTzZO341XH3hbKU+5SymvOGY3SlcmgbUTEHit3S7bww0+w0mB18uPqQHJp7a+4s98pJQ/fOU0fyvjP/9j68vP50wA9/gaDCTg++Afz3PGPv/Hz0zB49E3LuVf/3Fs2etS2iV+vJS7Pb6Ui9cAex3T92otVwv4TymBV3M8/r/as+0/3uqXSvnZIzfWPrdStnLcPvq4Uq51RFti4+O/f3nj6918tV8/V7tpquy1FBB4reVu26ONTmf29El57+u3v8LfO3ZapjX9bL8ES+ylQJqIH1VP0Iccspdr3b111cP2VJHSRywXluw0pW/VJa6406UtR4DALggIvHYB9VRT5J/9XilPvWspqUnYbvrav5byzKNK+cyHNl8yfcQu/ROlXGCLfap6V12lA+/Vb17KhS6x+fq2kpNA8fwXWz1ntjcnwp+pza5nH9DfLFek5aR4+Z+e+satXutiaubP+zzTWRbTNnuW7csVZC39YO1jc+jVVzdXpdP3s2tt4nauGk3Z8/5FbT3Lj/G8+BUWU7MPN7PbzvtrJeZKwVx0sWyykxqvBJ9Xuvb0tx2Lti3bfcw6ctHJZh5p8n30b24tGF513N70HqUccd/tbtXm85/1nFv/rG5eyoFzzneR6TN27Z8v5ZznO/D8BzPHdo65HO/zz1T677ULEw5mGyy77wTqmUQisInAN79eyl+/b5PMLUz+q3esnilfVg95SSk/ds3FSeW/v1vKCx5cyl/8wcZl8uV283oCOfQaUz+Zuy31P8pQE7/8/KlD///899RZuJ10H33rUj731xvLW/UqX77XumUpN7jTdCHAJ/6ilCceuXHOnMBudf/pgoK2nmxz0h0vOz1u9X/e0y8/r5Sznmvx/rNs+pc9pzYr/cvfbiwpwcC9ah+0s517Mf93vlXKcbUv2jvqibmlnBRuctdSfuqGpZzjvKW8/82lvO1VpdzvWdPFEKnNis07f3fRXy774nnvWVxtlrLu/JhFn6D06/t2XVdSTjy5wvR8F11cWJGmvaznJY/YGKBnv9ziXqVc9qpT37ns24cdO72HlJX521VtW31/Wa6l9FlKf7T5ie/f/nmxXW2+rTxm/x/961PAlRre/NBIkJ2+jV+uzc4PuUE9But7ud1DF/4p97Yn/WBIU+Ct67GRclr67aeX8uYXt1cbH/ND4yEv2hjEZH8+v9ZOtc9MAvLHvWZjma/8+FTO1/+tlKNqsN47bjOcxm2reUu5mvC3Pze9+vC7Snn6PVtO/zEOR790uiIxwXtSjP72Y6U87e6lfOPfp2kj/l/p8Nof7hml5KKefMZyvGb9sXl0DcJad4d71eM+n9fl9P63lPKiuo+Sblq37bYPmcrI67/7RK3RPSLPprTVYy796jLEzA3vVMoFL1E/T79R+7fWz+eR9fhNsJvP072vXkp+aEoEtigw+6bY4hJmI3CwAs+pX/w5MecE107qOYE+4Lkba1FeUb/cH/tb0wlx1dVX+TWck0KuonzyneuX4WVK+aXD6hf1t6eTUr4YD5RSC/TqT9Yvz6dNNTOrmtqu+XPT5fAJtO5/+LSe1OZlm05bTwzbSRnH7DE1WMoVoM+uwdwdLl3Ka58zlXDh+vxX37qx9itNRQ97Wc2vJ7vX/9p0Mk9AcPozTf2x7v7Exdqf9UfTWGQJupIS9DzhdTVQukh9UZdPysn6erebahSmCaW8740b+7Ul8EzA9oevKOW7dV1J2V/PfXcp57lwKX903DTcRi54yInxsFuVknW3lAAhAdrlTgoOUhuVICKBY0vXvMX0bDvvL0tk+4/5nVJudOd6cq7747G/UIPEK5TyhudPweZU6vb+JwjOifjv/2a6OCT7JCfYBBrtuHvLS6r3lVaXm/1yh3rszU++84BwvlSOr+zj5Vre7M8Hv3gK/jP/d+sx/LZXb+yUn32Sv2zLgY7bL32h7r/6HlrKsduWf1cNvLeSzlmPoxf+6fQD6S/fPgX6uZAm7yH9AV/4Z1OQtJWyDjRPaveOrsd5gq4E5PksZz9kn8TmKW9e1MjmQoo/rt8LOfba36/efRF0ZV2/V8t66a9M+elf+qQ7LbZgq8dcfiD95qemz1mCrqRL/+T0un235Hi82k2nPP8JbFGgHjUSgT0WSJNFvhSPvGytXTl0qunJJuRL7Ko3XGzMPa+y8VfqImd6duM7T1+sX//q4uqsr/zTorbqdGdcXuLkrz9eTyx3qSeRP3j5yfPalJvdc3r2iXqiaR2EUzORE1mpJ6GtpjQp3rIGWwk4E8DlZJYao5y4v/mNqZSc7NsXeU5uqWnLiSMBZcZ/Sk3Kw262WGOCqNaUd8fL1ZPWaxd55zp/KR99Tz1RXLmUO12+1qbMgqPr32GaL0Hcbzy+lM9+ZLHc+94wTXvVk6ZtTRDxkBfXZsq6fx5R1/0bT6iBzgtqrd11ptqILHm+iy76Ij3g2htrLhMIfu0rNXCrtUJf/LupJukPamC23feX9dz+6NrcW4+LuGU9n/7QFJzkKr2dXvX6E9dLyfVkfezih8Arq0mu3G2BV/K/9Z8bg6tMayn79CPvba/6j6nN+a2nlXKPehKPSYZpaSk1KfFO7U72S8Yjaymv8xe7Ax23qTnOvKmdSvp2XUdb/kPvnKYd6H+roXzF40r5tQdWn5dOF7p87qPTkrF5eOdzc6Dy5/m3f/gU0GXaO35rkfOmF03PE2DNB13NNs0v2Ml4ZMvpkleapuR4bRc3bOeYyxXZD/rZxWc+pWVonA/Wz37KzPrz9ydvXF6z1wS6Aj/QzZVJYDcEUkvxzlpr0ZoE05espUtesT2bTtBpKmzzLXKmZ+e+4PR4tnNNfa9afpZJM+lmtQ5tvvaY4KN3MjrrOaY5L3+12jxYg8aW3lhrWVpNUpvWe7z/86bcNImkuWie8gs9KSfKT39wen7/k2rC0pzYmjWTk6bIvL+Wrnu79mxjwJMr3lITkHmzfE5WLZ3/ou3ZgR8zlEECwr/7ZCn/VIORllLmpz/cXpVyjVtMz/PelgfJzT7/898v5YE1yEmAmCtUt/v+0gfrxneZ1vHhd5+8mSs1dy21gKO97j224OomtewE/y29/biT94lrNYBtnvnjfJ/Mpy8/f+D1p1qrnLRj8sjq1o7xHLOpkdlKOtBxu5UyNpsnNZwXqT+Mso4/qjVv8/TeNyxetaB/MWVnz+afh+8evyjjP768eH6hSy6e59nvPGPx+qZ3Wzxvz376RtP2x7il7Rxz2Sf5ofCn9fPaUvbxM46artpO4Jy/eQDY5vNIoCNQf0ZIBPZYILUf8/TR9yz6o6Sz9HL6Xv0CPM3shNjyc2L86RtPrx5bA7m3v6qUVkvzK7ecBnVt8x7oMSeYzdKH3jX180hn6DSvpH9SfuWmf8tD65f7VlI65SdATEqN0nLKeE/pK5Uajvw6T4f3NOslpZbslveZnrf/8wDhIpdpU6fmt/Zqeeyof//SVFOU2oM2zEebd8PjSbUkbVozzkn2tz/bpk6P8+2YD3CbE1ZL6Xu1PGzBTt7fLeoJL9ue9K66v5dTasHyd+I8S+9hed756y/9/dQce9Fam/Giun9zQUlGcE9z1sffP5/z4J9n++ZNkikxVp/8y+kii7xeVXuT6atS77idz5/P0HZS+rQlJeBe3ufzWt7s//T9+7d/mebf6f/nPaA2H9fA96u1nBbcp6mzbUfKXb6AIj/ejnzk1NUgx1MuemlBVi7iyJ0yPvCHiy3ayTGXpTO+X0vpHycROEiBk77FDrIUixM4GIE04bQ0P5G3aZs9/s0HpkAlX7Dpd5J7LeZKqARf+VIelV5fa6quc5tpHakduW/9pZ2Oy8++X+28/9GtrSW3S2lps9uypJm0pctepT2bbn3TmiIXUxfP0nF4q2krNUHfWwpa0h8tKc168+bKaeri/3/WQHRVSjPcctrJ+5vXrqTvz6j0+8dO/XZS3tl/uAZeby3lUx+crsqdB5Cj1reqnNRqpik6adWPjyln7/6f7yLTutKM/9Zf7693XlvVn3Pz3ASkacpMysUhP//A6Qrl+Y+HVf0vs+9yYUPS7R6yCLxyIUxS6z+Z5zs55rJcmoZbmj9v0zwS2KaAwGubYGY/hQk84ha1Y/2bFp180xH3HjXwOuzWtRN7/RuRUluTzvQPfMGixiX9p574+qnJKP11DpQufuhijvPWWr3P1yaLXpoPYvr3tb/P8tWevWUPOm8WeOUE3E54afZpTaIHu46dvL/zXXSx1lWjuC9yt/csQU9ugZUr4VpKDeWL/2JqVvrIu9vU3XucB/Aj39v/bfFsn/7ftM6T1qR+Qg2aR+3zzupOzMqVnA96YR1C4rxTDVpGuz++/ih7/Os2XzIXVfzcvae+eKkhzufs8x8v5YrXKiXHa6s9Swk7OeY2X7McAjsWWNF+s+OyLEhg7wVSS3TPq07NjK2fTLYiV0mdeDXgoE1Kn6Sjaq3VJ+vJeJ7SFNI6qs+nLz+f/3L/8cOWc0/+el57lCBgL9O8WWo+XEDGEBuVdvL+Tnu6xdrTybmXtlKzN18+t955+M02NpmlyTIXFRzs2HDz9Wz2fN6Jfq9q2TbblkxvNTtnOWdvrnF56VP2hNdOQVeunMzFJFsZyia1qfMBnu/y2FJ+8npTE2mGTZmnnRxz8+U9JzBIQOA1CFIx3weBG9253krljlPH5HQcP+pnFldIZnOuePiihiqv+9VZ6gAADJVJREFUd5ru+8xSLnyZ2on2a/XX9x2mmrR2lVTKvFVtcjxQyrhHLc1rVtq09njYEbXT+XPrVYazJsw0n27WBJvagZfWZrFs37A0qx1JM3CagZJySf1mwVe272m/X2sf7jPNe6D/O3l/7YrSlJ2m31Epw1MkpQn4ftcs5djHLDq7J/jabOT4zfbJVNr2/qcje0upsRmdthuItk7tef8Zp2yzdLd6dd+jljrfbzZvb3qO+XjmWHvCkQv/3jItL0Fz+9GVWrNcnJD3u9xEupNjrq3DI4GBAgKvgZj7qqgTOzCf9I5HnoC2g5iaoCNmJ/r0Ncm9FtugqWkim18luZ2y5/MeerWNwVXuRZl7R7ZhALZSKzC/GXEGs3zA8+ZrmJ7nUvejfnXqX5STbwt40nx61FNPPn86Pj/lrVMzSxtc8uRzbW3KvJZrPt5Wlp4HPA99yepg9uHHTsHf/Aqw3pp38v7Sp6+lDL673Nk6TXStme40tS/eVlOGp0jH7JbS9JiLM1qwMg+K5k4Xu1xbYnrMVZctzT8fbVrv8Tq3nXKzz99Sa9laatuQ18vvt82zlcc27tRW5s08n5hZJ5iej9jeykifyuvfvpSD7XCekfvzmUj6r68vgqi8PvPZ839Krcm7vW6P+RHUrkrOPBkP72//euMYaJl3J8dcW8dWHvN5PJh9tJV1mOdUISDwOlXsxu/Dm5h/wWTQwwOl+Rf/Dy3Nn87xLZ3+DO3Z4rGdTNtl/4uc6XYry01B85tpZzT4raT5F/yq28Vc8fDFST3lpSYowzW059Ozzf+nr0k6bLeUE/0z3l77Fd2jlKtcfxpd/gmvn65wy+X7aUKZX/2YQUqf/OY60Ofh0+CbaVLJ4Ja5UvKVtbavpdYRPq9XeZ2mBier8r70hWl6/meQyKTUHqS2Yz4MRfrRpO9TauZyNVuuNHxmfR9pKvrA2+qVpP80Lbvh+DjnNG3+fyfv73U1WG1NtglscpujebCTG3y3k3Ncsv1bTfOr57LM5/9fHcT0+GnpL//DopT51Xu3efA0PSfc1IplhPOWMvTIqpSx0JZTAo+r32yamqtbU7Pa0vwKyBgnpZY3zWlJBzpuMxBrUo6LXNWXlOFB2q145leizj+jxz15EfhniIvnvHMaUy4d/zOgcAYBzt0Dsn0ZV2wrqQ3/knnnzcY/UIOllrLfUn5SLqZIf82WzlWPt+z35c978l9+zCJQzutVdw3YyTGXsnKHiZbalcbtdXvM7cpeVY+ZYz8y9jZNrXyPpyqBFd8Cp6r3583shkC7JU0rO78wM8rzZim/lue/mJdv93HNWy6WzBdbTugtZUTxdjLNiWHVl+6T3rSYniAwv8KT0ldkfsXkNHX1/zZoaXLTpDY/CWVaXj/rHYvRs9Pk9qOHJmfqYD896/9/5r0WA45mzryXIx8+jVieMbByon/q3RZlZBDPed+fnIgyqGVGic/tjfJeUzszH1dp/j6yjS1oTak5ObTayZxMU8PW0mc+3J5NV5U9/31Tn5t0sk5tXUazbynrvffT6y1u6vTcRideGVssI/G3lICypQRHuZ/ictru+0tt0MsfszjBpmbu5fVE9+I/rwNa1pPePPDJCToXPxzzu8trXf06fcZytWrzyWCdqWlMjdN8vKg/ecNi+QRCx32qnnA/MV1ZN691TB/DV//NIthpTdMpP9uVYDtBTG579Nx3TkHyh2ogmeBynv7xs4tXufXTC95fB/ydGcz396rjtl1xmM9Qln3Zh6Y7DcQyx3Rq+1q60uHt2RTgvva5i9fxTBPe895TnZ453ZUgQd18MN/F3KufXfc2i+kZAiVlJuXilfmwGCk/tzfKD43WhJj5crzG+o6/klcbU4ZKacdwgvN266WNc9UfKTv4TOVHT0u5t+z8+6lNz+2xsm/jnMBYItAROOSEmjr5tbPpNbrZa595vy+u/VvYszeQ8ZzSRNYCoeUV51DKGEjzTrEZgyq3yVlOGXQwgw8eW0/47Zf4fJ6XP7beMuRh08lvPj3Pv/SFOmp6PZE/8Pn1l389gSW4yDblyzu1D9mOD9eT2bPqultz3XIZ7XVO1nc55uS1Q/nCz8CuGbE7J/ZsY8pOautJ2bmqKiPPbzWlNu2Rr5o6/8+XSf+ix9eT8HKgmJPjPLBsy2Tw0gQh85Hq82u7Ndm0+WLx6idPgU8brqDl5TGjhB/76GnKU99SSsaySspyb3rhxoFQE5hco9ZGzPd/5svQHa1fVLY327Gqti3bnDsVzPfJdt7ftGXT7XJye515zWTu55egJffnS0rQnVvrZIT3A6Wc5NOZPMFo3k+2L9ufoPcFtbzlqxpz38zDf37hkPlTw5J9mKvyMk5dxo/KOHPtvptnOXut1Xz2NNBvArp5SlD2sroPVjXTpuYwY8e195p1Pe0e08n/QMdt1pF9/qi6HW2fZXiI3H3gdkfXfXnzOr0GC/N04nH12MV9NNO/MLelakFSmzd3Osi9Gue1cy1v+TG1o/esZstlzD9jCWIf+uuL4yYDlWZcu9S25vZTrbYvdxPIPViXPydZZwKeux4zLZf7Xm6WtnrMpVY6A64uG6Xc1KSnW0NL+Y7Ld11S9n2GmpE2F3j++TfPOzXknPv93Xch8BJ4dQ+QU3RmTkppPsi9GfMLOn1xMlhn+ni1JqkRbyAd2POrPIFXmq/Oc6HpHnL58s36d5JyErrC1aaTfQLVnPB6KSfe1Bqd7YenKys3GwusV8ZW8tJJ/wIXr31m/nj1NiXIzck8l+3HObdVmQdSW1nHqnl28v7SRJd7Fmak/9YPLTWk8dzOfkmzW2pMUpOXGo0ERgksWpmrtjfz/tg1pj5JCfISjOd4zLEyH8Jg1bKpAcyyuU9prpI90L7PiT/zJzj8xJ+vKrE/LYHGla9Tm8br8XqgbduspAxIGuuv1M9XgtmtjtK/WXmrpufYutSVp32xbJ8a82/XALUX6D3yldN9Je9/eH/ftXXv5Jhry656zOfidGeogfp7VuWaNhcQeOUnXiep8ergyCJAgACB77tAgtk0O2eU+Qff4Pu+OTbgAAL7PPCqP6UkAgQIECCwZgKt6T+bnSbe1Awu3yN0zd6Szd0fArW9QyJAgAABAmsikADrhbUPzTlqs26aeNPfKxdafPWLpfzl29fkTdjM/Swg8NrPe997J0CAwLoJ5KrCBF1JqfU6W/1Lj5ln3nua5j+BU7iApsZT+A6yeQQIECAwE8hYcR+rNV4tpdYr91LdjRH/2zo8EhgooMZrIKaiCBAgQGAPBJ78i9MQGxl8eT6o7R6s2ioIHKyAwOtgBS1PgAABAnsvkOE48icRWDMBTY1rtsNsLgECBAgQILC+AgKv9d13tpwAAQIECBBYMwGB15rtMJtLgAABAgQIrK+AwGt9950tJ0CAAAECBNZMQOC1ZjvM5hIgQIAAAQLrKyDwWt99Z8sJECBAgACBNRMQeK3ZDrO5BAgQIECAwPoKCLzWd9/ZcgIECBAgQGDNBARea7bDbC4BAgQIECCwvgICr/Xdd7acAAECBAgQWDMBgdea7TCbS4AAAQIECKyvgMBrffedLSdAgAABAgTWTEDgdcZD1myX2VwCBAgQILCmAs65ReB1ydOv6dFrswkQIECAwJoJOOcKvMphZ1qzo9bmEiBAgACBNRVwzhV4lUvXGq8jzrqmR7DNJkCAAAECayKQc23Oufs8nXafv//p7V/nzKVcsFK891ulfPY7pRx/AhYCBAgQIEDgYAXSpyvNi6npEnSdqCnwagdVDggHRdPwSIAAAQIECOyCgM71u4CqSAIECBAgQIDAKgGB1yoV0wgQIECAAAECuyAg8NoFVEUSIECAAAECBFYJCLxWqZhGgAABAgQIENgFAYHXLqAqkgABAgQIECCwSkDgtUrFNAIECBAgQIDALggIvHYBVZEECBAgQIAAgVUCAq9VKqYRIECAAAECBHZBQOC1C6iKJECAAAECBAisEhB4rVIxjQABAgQIECCwCwICr11AVSQBAgQIECBAYJWAwGuVimkECBAgQIAAgV0QEHjtAqoiCRAgQIAAAQKrBAReq1RMI0CAAAECBAjsgoDAaxdQFUmAAAECBAgQWCUg8FqlYhoBAgQIECBAYBcEDjmhpl0oV5EECBAgQIAAAQJLAmq8lkC8JECAAAECBAjsloDAa7dklUuAAAECBAgQWBIQeC2BeEmAAAECBAgQ2C0BgdduySqXAAECBAgQILAkIPBaAvGSAAECBAgQILBbAgKv3ZJVLgECBAgQIEBgSUDgtQTiJQECBAgQIEBgtwT+P+oTbNEmEnfwAAAAAElFTkSuQmCC;" vertex="1" parent="1">
          <mxGeometry x="131" y="87" width="606" height="1161" as="geometry" />
        </mxCell>
        <mxCell id="r4KPTH7j58p8plraHldK-2" value="" style="endArrow=none;html=1;rounded=0;" edge="1" parent="1">
          <mxGeometry width="50" height="50" relative="1" as="geometry">
            <mxPoint x="60" y="89" as="sourcePoint" />
            <mxPoint x="830" y="90" as="targetPoint" />
          </mxGeometry>
        </mxCell>
        <mxCell id="r4KPTH7j58p8plraHldK-7" value="606 pixel" style="edgeLabel;html=1;align=center;verticalAlign=middle;resizable=0;points=[];fontSize=16;" vertex="1" connectable="0" parent="r4KPTH7j58p8plraHldK-2">
          <mxGeometry x="0.14" y="13" relative="1" as="geometry">
            <mxPoint x="-46" as="offset" />
          </mxGeometry>
        </mxCell>
        <mxCell id="r4KPTH7j58p8plraHldK-4" value="" style="endArrow=none;html=1;rounded=0;" edge="1" parent="1">
          <mxGeometry width="50" height="50" relative="1" as="geometry">
            <mxPoint x="128" y="30" as="sourcePoint" />
            <mxPoint x="128" y="1360" as="targetPoint" />
          </mxGeometry>
        </mxCell>
        <mxCell id="r4KPTH7j58p8plraHldK-5" value="" style="endArrow=none;html=1;rounded=0;" edge="1" parent="1">
          <mxGeometry width="50" height="50" relative="1" as="geometry">
            <mxPoint x="85" y="1277.5" as="sourcePoint" />
            <mxPoint x="835" y="1277.5" as="targetPoint" />
          </mxGeometry>
        </mxCell>
        <mxCell id="r4KPTH7j58p8plraHldK-6" value="" style="endArrow=none;html=1;rounded=0;" edge="1" parent="1">
          <mxGeometry width="50" height="50" relative="1" as="geometry">
            <mxPoint x="811" y="50" as="sourcePoint" />
            <mxPoint x="811" y="1380" as="targetPoint" />
          </mxGeometry>
        </mxCell>
        <mxCell id="r4KPTH7j58p8plraHldK-8" value="1161 pixel" style="edgeLabel;html=1;align=center;verticalAlign=middle;resizable=0;points=[];fontSize=16;" vertex="1" connectable="0" parent="r4KPTH7j58p8plraHldK-6">
          <mxGeometry x="-0.0654" y="-1" relative="1" as="geometry">
            <mxPoint y="-1" as="offset" />
          </mxGeometry>
        </mxCell>
        <mxCell id="r4KPTH7j58p8plraHldK-9" value="#E0E0E0 lightgray" style="rounded=0;whiteSpace=wrap;html=1;fontSize=17;" vertex="1" parent="1">
          <mxGeometry x="480" y="130" width="170" height="20" as="geometry" />
        </mxCell>
        <mxCell id="r4KPTH7j58p8plraHldK-10" value="#4CAF50 green" style="rounded=0;whiteSpace=wrap;html=1;" vertex="1" parent="1">
          <mxGeometry x="190" y="150" width="100" height="20" as="geometry" />
        </mxCell>
        <mxCell id="r4KPTH7j58p8plraHldK-11" value="#2196F3 blue" style="rounded=0;whiteSpace=wrap;html=1;fontSize=16;" vertex="1" parent="1">
          <mxGeometry x="350" y="340" width="120" height="20" as="geometry" />
        </mxCell>
        <mxCell id="r4KPTH7j58p8plraHldK-12" value="#F2F2F2 very light gray" style="rounded=0;whiteSpace=wrap;html=1;fontSize=16;" vertex="1" parent="1">
          <mxGeometry x="492" y="280" width="180" height="20" as="geometry" />
        </mxCell>
        <mxCell id="r4KPTH7j58p8plraHldK-13" value="#FF5722 orange" style="rounded=0;whiteSpace=wrap;html=1;fontSize=16;" vertex="1" parent="1">
          <mxGeometry x="450" y="1160" width="140" height="20" as="geometry" />
        </mxCell>
        <mxCell id="r4KPTH7j58p8plraHldK-16" value="" style="endArrow=none;html=1;rounded=0;exitX=0.031;exitY=0.037;exitDx=0;exitDy=0;exitPerimeter=0;" edge="1" parent="1">
          <mxGeometry width="50" height="50" relative="1" as="geometry">
            <mxPoint x="149.78600000000006" y="133.957" as="sourcePoint" />
            <mxPoint x="330" y="134" as="targetPoint" />
          </mxGeometry>
        </mxCell>
        <mxCell id="r4KPTH7j58p8plraHldK-18" value="129 pixel" style="edgeLabel;html=1;align=center;verticalAlign=middle;resizable=0;points=[];" vertex="1" connectable="0" parent="r4KPTH7j58p8plraHldK-16">
          <mxGeometry x="0.1055" relative="1" as="geometry">
            <mxPoint as="offset" />
          </mxGeometry>
        </mxCell>
        <mxCell id="r4KPTH7j58p8plraHldK-21" value="(43, 47)" style="edgeLabel;html=1;align=center;verticalAlign=middle;resizable=0;points=[];fontSize=16;" vertex="1" connectable="0" parent="r4KPTH7j58p8plraHldK-16">
          <mxGeometry x="-0.8378" y="2" relative="1" as="geometry">
            <mxPoint x="2" y="16" as="offset" />
          </mxGeometry>
        </mxCell>
        <mxCell id="r4KPTH7j58p8plraHldK-17" value="" style="endArrow=none;html=1;rounded=0;exitX=0.031;exitY=0.037;exitDx=0;exitDy=0;exitPerimeter=0;" edge="1" parent="1">
          <mxGeometry width="50" height="50" relative="1" as="geometry">
            <mxPoint x="152.78600000000006" y="235.957" as="sourcePoint" />
            <mxPoint x="333" y="236" as="targetPoint" />
          </mxGeometry>
        </mxCell>
        <mxCell id="r4KPTH7j58p8plraHldK-19" value="" style="endArrow=none;html=1;rounded=0;" edge="1" parent="1">
          <mxGeometry width="50" height="50" relative="1" as="geometry">
            <mxPoint x="303" y="260" as="sourcePoint" />
            <mxPoint x="303" y="110" as="targetPoint" />
          </mxGeometry>
        </mxCell>
        <mxCell id="r4KPTH7j58p8plraHldK-20" value="102 pixel" style="edgeLabel;html=1;align=center;verticalAlign=middle;resizable=0;points=[];" vertex="1" connectable="0" parent="r4KPTH7j58p8plraHldK-19">
          <mxGeometry x="0.1055" relative="1" as="geometry">
            <mxPoint y="9" as="offset" />
          </mxGeometry>
        </mxCell>
        <mxCell id="r4KPTH7j58p8plraHldK-22" value="(8, 10)" style="edgeLabel;html=1;align=center;verticalAlign=middle;resizable=0;points=[];fontSize=16;" vertex="1" connectable="0" parent="1">
          <mxGeometry x="165.9964767976539" y="112.00045983243409" as="geometry">
            <mxPoint x="-2" y="-1" as="offset" />
          </mxGeometry>
        </mxCell>
        <mxCell id="r4KPTH7j58p8plraHldK-23" value="" style="endArrow=none;html=1;rounded=0;" edge="1" parent="1">
          <mxGeometry width="50" height="50" relative="1" as="geometry">
            <mxPoint x="70" y="99" as="sourcePoint" />
            <mxPoint x="790" y="97" as="targetPoint" />
          </mxGeometry>
        </mxCell>
        <mxCell id="r4KPTH7j58p8plraHldK-24" value="590 pixel" style="edgeLabel;html=1;align=center;verticalAlign=middle;resizable=0;points=[];fontSize=16;" vertex="1" connectable="0" parent="r4KPTH7j58p8plraHldK-23">
          <mxGeometry x="0.14" y="13" relative="1" as="geometry">
            <mxPoint x="-56" y="24" as="offset" />
          </mxGeometry>
        </mxCell>
        <mxCell id="r4KPTH7j58p8plraHldK-25" value="" style="endArrow=none;html=1;rounded=0;" edge="1" parent="1">
          <mxGeometry width="50" height="50" relative="1" as="geometry">
            <mxPoint x="770" y="302" as="sourcePoint" />
            <mxPoint x="770" y="72" as="targetPoint" />
          </mxGeometry>
        </mxCell>
        <mxCell id="r4KPTH7j58p8plraHldK-26" value="175 pixel" style="edgeLabel;html=1;align=center;verticalAlign=middle;resizable=0;points=[];fontSize=16;" vertex="1" connectable="0" parent="r4KPTH7j58p8plraHldK-25">
          <mxGeometry x="-0.0713" relative="1" as="geometry">
            <mxPoint as="offset" />
          </mxGeometry>
        </mxCell>
        <mxCell id="r4KPTH7j58p8plraHldK-27" value="" style="endArrow=none;html=1;rounded=0;" edge="1" parent="1">
          <mxGeometry width="50" height="50" relative="1" as="geometry">
            <mxPoint x="-240" y="-20" as="sourcePoint" />
            <mxPoint x="510" y="-20" as="targetPoint" />
          </mxGeometry>
        </mxCell>
        <mxCell id="r4KPTH7j58p8plraHldK-28" value="409 pixel" style="edgeLabel;html=1;align=center;verticalAlign=middle;resizable=0;points=[];fontSize=16;" vertex="1" connectable="0" parent="r4KPTH7j58p8plraHldK-27">
          <mxGeometry x="0.14" y="13" relative="1" as="geometry">
            <mxPoint x="-56" y="-2" as="offset" />
          </mxGeometry>
        </mxCell>
        <mxCell id="r4KPTH7j58p8plraHldK-29" value="" style="endArrow=none;html=1;rounded=0;" edge="1" parent="1">
          <mxGeometry width="50" height="50" relative="1" as="geometry">
            <mxPoint x="684" y="440" as="sourcePoint" />
            <mxPoint x="684" y="290" as="targetPoint" />
          </mxGeometry>
        </mxCell>
        <mxCell id="r4KPTH7j58p8plraHldK-30" value="80 pixel" style="edgeLabel;html=1;align=center;verticalAlign=middle;resizable=0;points=[];fontSize=16;" vertex="1" connectable="0" parent="r4KPTH7j58p8plraHldK-29">
          <mxGeometry x="-0.0713" relative="1" as="geometry">
            <mxPoint as="offset" />
          </mxGeometry>
        </mxCell>
        <mxCell id="r4KPTH7j58p8plraHldK-31" value="(89, 272)" style="edgeLabel;html=1;align=center;verticalAlign=middle;resizable=0;points=[];fontSize=16;" vertex="1" connectable="0" parent="1">
          <mxGeometry x="189.9964767976539" y="305.0004598324341" as="geometry" />
        </mxCell>
        <mxCell id="r4KPTH7j58p8plraHldK-32" value="" style="endArrow=none;html=1;rounded=0;" edge="1" parent="1">
          <mxGeometry width="50" height="50" relative="1" as="geometry">
            <mxPoint x="770" y="870.7999877929688" as="sourcePoint" />
            <mxPoint x="770" y="250" as="targetPoint" />
          </mxGeometry>
        </mxCell>
        <mxCell id="r4KPTH7j58p8plraHldK-33" value="492 pixel" style="edgeLabel;html=1;align=center;verticalAlign=middle;resizable=0;points=[];fontSize=16;" vertex="1" connectable="0" parent="r4KPTH7j58p8plraHldK-32">
          <mxGeometry x="-0.0713" relative="1" as="geometry">
            <mxPoint as="offset" />
          </mxGeometry>
        </mxCell>
        <mxCell id="r4KPTH7j58p8plraHldK-34" value="" style="endArrow=none;html=1;rounded=0;" edge="1" parent="1">
          <mxGeometry width="50" height="50" relative="1" as="geometry">
            <mxPoint x="620" y="360" as="sourcePoint" />
            <mxPoint x="690" y="360" as="targetPoint" />
          </mxGeometry>
        </mxCell>
        <mxCell id="r4KPTH7j58p8plraHldK-35" value="" style="endArrow=none;html=1;rounded=0;" edge="1" parent="1">
          <mxGeometry width="50" height="50" relative="1" as="geometry">
            <mxPoint x="709" y="855" as="sourcePoint" />
            <mxPoint x="779" y="855" as="targetPoint" />
          </mxGeometry>
        </mxCell>
        <mxCell id="r4KPTH7j58p8plraHldK-36" value="" style="endArrow=none;html=1;rounded=0;" edge="1" parent="1">
          <mxGeometry width="50" height="50" relative="1" as="geometry">
            <mxPoint x="770" y="1260" as="sourcePoint" />
            <mxPoint x="770" y="879" as="targetPoint" />
          </mxGeometry>
        </mxCell>
        <mxCell id="r4KPTH7j58p8plraHldK-37" value="680 pixel" style="edgeLabel;html=1;align=center;verticalAlign=middle;resizable=0;points=[];fontSize=16;" vertex="1" connectable="0" parent="r4KPTH7j58p8plraHldK-36">
          <mxGeometry x="-0.0713" relative="1" as="geometry">
            <mxPoint as="offset" />
          </mxGeometry>
        </mxCell>
        <mxCell id="r4KPTH7j58p8plraHldK-38" value="" style="endArrow=none;html=1;rounded=0;" edge="1" parent="1">
          <mxGeometry width="50" height="50" relative="1" as="geometry">
            <mxPoint x="719" y="890" as="sourcePoint" />
            <mxPoint x="789" y="890" as="targetPoint" />
          </mxGeometry>
        </mxCell>
        <mxCell id="r4KPTH7j58p8plraHldK-39" value="" style="endArrow=none;html=1;rounded=0;" edge="1" parent="1">
          <mxGeometry width="50" height="50" relative="1" as="geometry">
            <mxPoint x="720" y="1240" as="sourcePoint" />
            <mxPoint x="790" y="1240" as="targetPoint" />
          </mxGeometry>
        </mxCell>
        <mxCell id="r4KPTH7j58p8plraHldK-40" value="" style="endArrow=none;html=1;rounded=0;" edge="1" parent="1">
          <mxGeometry width="50" height="50" relative="1" as="geometry">
            <mxPoint x="170" y="1156" as="sourcePoint" />
            <mxPoint x="700.4000244140625" y="1156" as="targetPoint" />
          </mxGeometry>
        </mxCell>
        <mxCell id="r4KPTH7j58p8plraHldK-41" value="&lt;font style=&quot;font-size: 16px;&quot;&gt;478 pixel&lt;/font&gt;" style="edgeLabel;html=1;align=center;verticalAlign=middle;resizable=0;points=[];" vertex="1" connectable="0" parent="r4KPTH7j58p8plraHldK-40">
          <mxGeometry x="0.0219" y="1" relative="1" as="geometry">
            <mxPoint x="-2" y="-16" as="offset" />
          </mxGeometry>
        </mxCell>
        <mxCell id="r4KPTH7j58p8plraHldK-42" value="" style="endArrow=none;html=1;rounded=0;" edge="1" parent="1">
          <mxGeometry width="50" height="50" relative="1" as="geometry">
            <mxPoint x="673" y="1151" as="sourcePoint" />
            <mxPoint x="673" y="1231" as="targetPoint" />
          </mxGeometry>
        </mxCell>
        <mxCell id="r4KPTH7j58p8plraHldK-43" value="&lt;font style=&quot;font-size: 16px;&quot;&gt;67 pixel&lt;/font&gt;" style="edgeLabel;html=1;align=center;verticalAlign=middle;resizable=0;points=[];" vertex="1" connectable="0" parent="r4KPTH7j58p8plraHldK-42">
          <mxGeometry x="0.0219" y="1" relative="1" as="geometry">
            <mxPoint x="-2" y="-2" as="offset" />
          </mxGeometry>
        </mxCell>
        <mxCell id="r4KPTH7j58p8plraHldK-44" value="" style="endArrow=none;html=1;rounded=0;" edge="1" parent="1">
          <mxGeometry width="50" height="50" relative="1" as="geometry">
            <mxPoint x="195.5" y="1147" as="sourcePoint" />
            <mxPoint x="195.5" y="1227" as="targetPoint" />
          </mxGeometry>
        </mxCell>
        <mxCell id="r4KPTH7j58p8plraHldK-50" value="radius 10 pixel" style="ellipse;whiteSpace=wrap;html=1;aspect=fixed;" vertex="1" parent="1">
          <mxGeometry x="620" y="1080" width="62" height="62" as="geometry" />
        </mxCell>
        <mxCell id="r4KPTH7j58p8plraHldK-51" value="radius 15 pixel" style="ellipse;whiteSpace=wrap;html=1;aspect=fixed;" vertex="1" parent="1">
          <mxGeometry x="200" y="382" width="62" height="62" as="geometry" />
        </mxCell>
        <mxCell id="r4KPTH7j58p8plraHldK-54" value="radius 15 pixel" style="ellipse;whiteSpace=wrap;html=1;aspect=fixed;" vertex="1" parent="1">
          <mxGeometry x="350" y="200" width="62" height="62" as="geometry" />
        </mxCell>
      </root>
    </mxGraphModel>
  </diagram>
</mxfile>
